<?xml version="1.0" encoding="utf-8"?>
<!-- Generator: Adobe Illustrator 24.0.1, SVG Export Plug-In . SVG Version: 6.00 Build 0)  -->
<svg version="1.1" id="图层_1" xmlns="http://www.w3.org/2000/svg" xmlns:xlink="http://www.w3.org/1999/xlink" x="0px" y="0px"
	 viewBox="0 0 120 60" style="enable-background:new 0 0 120 60;" xml:space="preserve">
<style type="text/css">
	.st0{stroke:#FFFFFF;stroke-width:4;stroke-miterlimit:10;}
	.st1{fill:none;stroke:#000000;stroke-width:4;stroke-miterlimit:10;}
	.st2{stroke:#000000;stroke-width:4;stroke-miterlimit:10;}
	.st3{fill:#0035D4;}
</style>
<path class="st0" d="M27.39,5.27"/>
<path class="st1" d="M55.72,54.85"/>
<path class="st0" d="M27.39,5.27"/>
<path class="st1" d="M46.91,54.22"/>
<path class="st1" d="M56.35,54.22"/>
<line class="st1" x1="17.95" y1="15.31" x2="46.91" y2="15.31"/>
<line class="st1" x1="64.53" y1="12.8" x2="109.85" y2="12.8"/>
<line class="st1" x1="17.95" y1="37.9" x2="46.91" y2="37.9"/>
<path class="st2" d="M26.13,14.68c0,22.6,0,22.6,0,22.6"/>
<path class="st2" d="M41.24,14.68c0,40.17,0,40.17,0,40.17"/>
<line class="st1" x1="56.35" y1="5.27" x2="56.35" y2="5.27"/>
<polyline class="st1" points="37.46,22.84 30.26,24.53 36.49,29.82 28.71,31.39 "/>
<path class="st1" d="M27.5,4.58l26.65,0.11c1.57,0.01,2.84,1.25,2.83,2.77L56.79,53.1c0,0.97-0.8,1.75-1.77,1.75l-8.07-0.03"/>
<path class="st3" d="M21.1,8.4L21.1,8.4c-1.73,0-3.15-1.39-3.15-3.09v-0.1c0-1.7,1.42-3.09,3.15-3.09l0,0
	c1.73,0,3.15,1.39,3.15,3.09v0.1C24.25,7.02,22.83,8.4,21.1,8.4z"/>
<path class="st3" d="M86.7,8.4L86.7,8.4c-1.81,0-3.28-1.45-3.28-3.22V5.17c0-1.77,1.48-3.22,3.28-3.22l0,0
	c1.81,0,3.28,1.45,3.28,3.22v0.01C89.98,6.95,88.5,8.4,86.7,8.4z"/>
<path class="st1" d="M11.03,55.48V6.27c0-0.9,0.74-1.64,1.66-1.64h2.12"/>
<line class="st1" x1="69.57" y1="21.58" x2="103.56" y2="21.58"/>
<line class="st1" x1="69.57" y1="31.63" x2="103.56" y2="31.63"/>
<path class="st1" d="M73.97,41.27v10.84c0,1.51,1.48,2.74,3.31,2.74h19.19c1.83,0,3.31-1.23,3.31-2.74V41.27
	c0-1.51-1.48-2.74-3.31-2.74H77.28C75.46,38.53,73.97,39.76,73.97,41.27z"/>
</svg>
