<svg class="animated" id="freepik_stories-upload" xmlns="http://www.w3.org/2000/svg" viewBox="0 0 500 500" version="1.1" xmlns:xlink="http://www.w3.org/1999/xlink" xmlns:svgjs="http://svgjs.com/svgjs"><style>svg#freepik_stories-upload:not(.animated) .animable {opacity: 0;}svg#freepik_stories-upload.animated #freepik--Files--inject-452 {animation: 3s Infinite  linear floating;animation-delay: 0s;}svg#freepik_stories-upload.animated #freepik--Screen--inject-452 {animation: 3s Infinite  linear floating;animation-delay: 0s;}svg#freepik_stories-upload.animated #freepik--Cloud--inject-452 {animation: 1s 1 forwards cubic-bezier(.36,-0.01,.5,1.38) slideUp;animation-delay: 0s;}svg#freepik_stories-upload.animated #freepik--Character--inject-452 {animation: 3s Infinite  linear wind;animation-delay: 0s;}            @keyframes floating {                0% {                    opacity: 1;                    transform: translateY(0px);                }                50% {                    transform: translateY(-10px);                }                100% {                    opacity: 1;                    transform: translateY(0px);                }            }                    @keyframes slideUp {                0% {                    opacity: 0;                    transform: translateY(30px);                }                100% {                    opacity: 1;                    transform: inherit;                }            }                    @keyframes wind {                0% {                    transform: rotate( 0deg );                }                25% {                    transform: rotate( 1deg );                }                75% {                    transform: rotate( -1deg );                }            }        .animator-hidden { display: none; }</style><g id="freepik--background-complete--inject-452" class="animable animator-hidden" style="transform-origin: 254.205px 255.38px;"><path d="M448.47,299.55s-9-3-13.32,17.82-5,32.27-5,32.27-1.41,4.49-4.72,2.71-8.84-7.89-13-5.39-4.38,8.17-1.42,15.52,8.84,23.69,9.37,25.17.26,3.87-2.19,3-17.91-10.82-22.2-3.2,7.31,26.75,8.53,28.86,1,3.21.12,4.07-5.81-3-10.32-5.63-10.22-4.94-12.32-.34,1.14,20.44,22.85,41.68l10.71,9.18,13.44-4.49c28.17-11.34,37.21-24.75,37-29.81s-6.33-5.12-11.52-4.38-11.16,2.42-11.69,1.27-.28-2.23,1.66-3.72,19.95-14.74,18.89-23.42-19.15-5.37-21.74-5.51-1.9-2.48-.87-3.62,12.72-14,18.26-19.7,7.56-10.87,4.6-14.89-10.29-.34-14,.05-3.33-4.31-3.33-4.31S450.11,341.89,454,321s-5.75-21.53-5.75-21.53" style="fill: rgb(235, 235, 235); transform-origin: 423.73px 382.335px;" id="el0kidn40aj3z9" class="animable"></path><path d="M415.56,462.31c2.95-15.31,7.2-36.42,12-59.73s9.08-44.39,12.11-59.68l3.58-18.11c.42-2.12.75-3.78,1-4.92.12-.55.21-1,.27-1.28a3.59,3.59,0,0,1,.11-.43s0,.15-.06.44-.13.74-.22,1.28c-.21,1.16-.51,2.82-.89,4.94-.78,4.29-2,10.49-3.42,18.15-2.95,15.3-7.2,36.41-12,59.71s-9.08,44.41-12.11,59.7" style="fill: rgb(224, 224, 224); transform-origin: 430.095px 390.27px;" id="ellizbip2c1oc" class="animable"></path><path d="M419.91,355.81a4.07,4.07,0,0,1,.6.83c.37.54.87,1.35,1.48,2.35,1.21,2,2.81,4.82,4.52,7.95l4.35,8.06,1.32,2.43a3.75,3.75,0,0,1,.45.92,4.77,4.77,0,0,1-.61-.83c-.36-.54-.86-1.35-1.46-2.36-1.2-2-2.76-4.85-4.47-8l-4.4-8c-.53-1-1-1.76-1.34-2.43A3.9,3.9,0,0,1,419.91,355.81Z" style="fill: rgb(224, 224, 224); transform-origin: 426.27px 367.08px;" id="els35oibif62i" class="animable"></path><path d="M434,378.25c-.07-.12,5.58-3.68,12.62-8s12.8-7.66,12.87-7.54-5.58,3.67-12.62,8S434,378.36,434,378.25Z" style="fill: rgb(224, 224, 224); transform-origin: 446.745px 370.48px;" id="el0ul7zdomc4e" class="animable"></path><path d="M425,413.7a4.45,4.45,0,0,1,1-.33l2.73-.74c2.3-.63,5.48-1.51,9-2.6s6.59-2.18,8.84-3l2.66-1a4.77,4.77,0,0,1,1-.3,4,4,0,0,1-.93.47c-.61.28-1.5.66-2.61,1.1-2.22.89-5.33,2-8.82,3.13s-6.69,1.92-9,2.47c-1.16.27-2.11.47-2.77.59A4.32,4.32,0,0,1,425,413.7Z" style="fill: rgb(224, 224, 224); transform-origin: 437.615px 409.715px;" id="el1rrayhd4msj" class="animable"></path><path d="M407.84,396.2a4.1,4.1,0,0,1,.74.61c.46.42,1.12,1,1.91,1.79,1.6,1.53,3.79,3.66,6.18,6s4.53,4.54,6.07,6.13c.77.79,1.38,1.44,1.8,1.9s.64.72.61.74a4,4,0,0,1-.74-.61c-.46-.41-1.11-1-1.91-1.79-1.6-1.52-3.78-3.66-6.17-6s-4.54-4.55-6.08-6.14l-1.8-1.89C408,396.49,407.81,396.23,407.84,396.2Z" style="fill: rgb(224, 224, 224); transform-origin: 416.495px 404.785px;" id="elkchxmtefujr" class="animable"></path><path d="M396,426.5a5.43,5.43,0,0,1,1,.79l2.45,2.29c2.06,1.94,4.88,4.65,8,7.67s5.88,5.76,7.88,7.77l2.34,2.4a6.55,6.55,0,0,1,.82.92,5.92,5.92,0,0,1-.95-.79L415,445.27c-2.06-1.95-4.88-4.66-8-7.68s-5.88-5.76-7.87-7.77l-2.35-2.4A6.55,6.55,0,0,1,396,426.5Z" style="fill: rgb(224, 224, 224); transform-origin: 407.245px 437.42px;" id="el9xiqrokvuqt" class="animable"></path><path d="M418,447.67a7,7,0,0,1,1.24-.45l3.43-1.06c2.9-.9,6.89-2.16,11.26-3.67s8.3-3,11.13-4l3.36-1.27a7.65,7.65,0,0,1,1.25-.41,6.2,6.2,0,0,1-1.18.59c-.77.35-1.9.83-3.3,1.41-2.81,1.16-6.72,2.67-11.1,4.18s-8.4,2.72-11.32,3.54c-1.46.4-2.65.72-3.48.91A6.49,6.49,0,0,1,418,447.67Z" style="fill: rgb(224, 224, 224); transform-origin: 433.835px 442.24px;" id="elum4nmj86d6j" class="animable"></path><path d="M215.07,125l-37.42-17.86a5.19,5.19,0,0,1-2.44-6.92l24.72-51.79A5.19,5.19,0,0,1,206.85,46l23.73,11.32L239.91,85,222,122.58A5.19,5.19,0,0,1,215.07,125Z" style="fill: rgb(235, 235, 235); transform-origin: 207.306px 85.5029px;" id="el2ydsm072coh" class="animable"></path><path d="M230.58,57.33l-7,14.58a4.82,4.82,0,0,0,2.28,6.43l14,6.7Z" style="fill: rgb(245, 245, 245); transform-origin: 231.485px 71.185px;" id="elo5g3kqpinj" class="animable"></path><path d="M223.2,73.28a5.37,5.37,0,0,0,1.6,6.53c.13.12.27.22.41.33,1.68,1.2,12.7,9.09,12.83,8.81L239.91,85l-14-6.69S222.45,76.56,223.2,73.28Z" style="fill: rgb(224, 224, 224); transform-origin: 231.304px 81.1186px;" id="elk3lq5dtfrh" class="animable"></path><path d="M220.77,69.82c-.09.18-4-1.51-8.82-3.8s-8.58-4.28-8.49-4.47,4,1.51,8.82,3.8S220.86,69.63,220.77,69.82Z" style="fill: rgb(250, 250, 250); transform-origin: 212.115px 65.6843px;" id="elx5fhfkbod2" class="animable"></path><path d="M228,83.4c-.09.18-6.54-2.71-14.4-6.47s-14.18-7-14.09-7.14,6.54,2.71,14.41,6.47S228.1,83.21,228,83.4Z" style="fill: rgb(250, 250, 250); transform-origin: 213.755px 76.5965px;" id="eln3d1z6t86" class="animable"></path><path d="M227.29,91.5c-.08.19-7.11-3-15.69-7.07s-15.45-7.57-15.36-7.75,7.11,3,15.69,7.07S227.38,91.32,227.29,91.5Z" style="fill: rgb(250, 250, 250); transform-origin: 211.765px 84.0904px;" id="elpl59glpp5eo" class="animable"></path><path d="M224.2,98c-.09.18-7.12-3-15.69-7.08s-15.46-7.56-15.37-7.75,7.11,3,15.69,7.07S224.28,97.81,224.2,98Z" style="fill: rgb(250, 250, 250); transform-origin: 208.67px 90.5846px;" id="elav1nobqkbxs" class="animable"></path><path d="M221.1,104.49c-.09.19-7.12-3-15.69-7.08S190,89.85,190,89.66s7.11,3,15.69,7.08S221.18,104.3,221.1,104.49Z" style="fill: rgb(250, 250, 250); transform-origin: 205.55px 97.075px;" id="el0dgt2wdm48tc" class="animable"></path><path d="M218,111c-.09.19-7.12-3-15.69-7.07s-15.46-7.57-15.37-7.75,7.11,3,15.69,7.07S218.09,110.79,218,111Z" style="fill: rgb(250, 250, 250); transform-origin: 202.47px 103.59px;" id="elfbck5eggjqk" class="animable"></path><path d="M425.23,387.39H349.76s-.89-17.76,14.79-18.95c0,0,2.61-15,20.13-15.09,21-.1,21.27,18.2,21.27,18.2s17.21-1.63,19.28,15.84" style="fill: rgb(250, 250, 250); transform-origin: 387.49px 370.37px;" id="elxdg0vzyssv" class="animable"></path><polygon points="66.43 360.63 66.43 360.63 66.43 360.63 66.43 360.63 51.93 373.77 60.69 373.77 60.69 392.37 66.1 392.37 66.76 392.37 72.18 392.37 72.18 373.77 80.94 373.77 66.43 360.63" style="fill: rgb(235, 235, 235); transform-origin: 66.435px 376.5px;" id="eltcbmbj5lj37" class="animable"></polygon><polygon points="440.17 106.13 440.17 106.13 440.17 106.13 440.17 106.13 422.44 122.2 433.15 122.2 433.15 144.93 439.77 144.93 440.58 144.93 447.2 144.93 447.2 122.2 457.9 122.2 440.17 106.13" style="fill: rgb(235, 235, 235); transform-origin: 440.17px 125.53px;" id="el187hgm76n3i" class="animable"></polygon><g id="elteh07f7xwhg"><rect x="54.16" y="103.69" width="53.56" height="66.99" style="fill: rgb(235, 235, 235); transform-origin: 80.94px 137.185px; transform: rotate(-77.39deg);" class="animable"></rect></g><g id="elp1zqjvuou1t"><rect x="57.48" y="106.04" width="46.82" height="62.29" style="fill: rgb(245, 245, 245); transform-origin: 80.89px 137.185px; transform: rotate(-77.39deg);" class="animable"></rect></g><polygon points="45.39 153.23 72.97 129.58 82.15 150.28 93.19 142.78 106.18 166.82 45.39 153.23" style="fill: rgb(224, 224, 224); transform-origin: 75.785px 148.2px;" id="eld1tyf0ak7s5" class="animable"></polygon><path d="M92.49,130.29a4.91,4.91,0,1,1-3.72-5.86A4.91,4.91,0,0,1,92.49,130.29Z" style="fill: rgb(224, 224, 224); transform-origin: 87.6977px 129.221px;" id="elsecofjk6z2" class="animable"></path></g><g id="freepik--Floor--inject-452" class="animable animator-hidden" style="transform-origin: 250px 464.92px;"><path d="M483.79,464.92c0,.15-104.68.26-233.78.26s-233.8-.11-233.8-.26,104.66-.26,233.8-.26S483.79,464.78,483.79,464.92Z" style="fill: rgb(38, 50, 56); transform-origin: 250px 464.92px;" id="elfdq46ukhs49" class="animable"></path></g><g id="freepik--Plant--inject-452" class="animable animator-hidden" style="transform-origin: 417.448px 433.844px;"><path d="M415.8,428.1c-1.71,2.44-5,1.63-6.57.14s-2.2-3.65-2.79-5.71c-1.35-4.7-2.72-9.64-1.71-14.43a8.05,8.05,0,0,1,1.84-3.92,4.17,4.17,0,0,1,4-1.32c1.68.44,2.72,2.08,3.47,3.64a34.46,34.46,0,0,1,3.4,14.76,11.93,11.93,0,0,1-1.61,6.84" style="fill: rgb(38, 50, 56); transform-origin: 410.924px 416.211px;" id="el22y7w1zbmyr" class="animable"></path><g id="elcw0z4igwcdd"><g style="opacity: 0.2; transform-origin: 410.924px 416.211px;" class="animable"><path d="M415.8,428.1c-1.71,2.44-5,1.63-6.57.14s-2.2-3.65-2.79-5.71c-1.35-4.7-2.72-9.64-1.71-14.43a8.05,8.05,0,0,1,1.84-3.92,4.17,4.17,0,0,1,4-1.32c1.68.44,2.72,2.08,3.47,3.64a34.46,34.46,0,0,1,3.4,14.76,11.93,11.93,0,0,1-1.61,6.84" id="eleq58dkecfju" class="animable" style="transform-origin: 410.924px 416.211px;"></path></g></g><path d="M409.39,440.46a14.77,14.77,0,0,0-9.19-1.11,7.64,7.64,0,0,0-4.54,2c-1.13,1.25-1.35,3.46,0,4.53a4.34,4.34,0,0,0,2.86.73c2.43,0,5.12-.46,7.06,1,1.11.83,1.85,2.22,3.17,2.63a3.14,3.14,0,0,0,3.45-1.54,5.36,5.36,0,0,0,.39-3.94A6.05,6.05,0,0,0,409.39,440.46Z" style="fill: rgb(38, 50, 56); transform-origin: 403.763px 444.69px;" id="elv03v8dx1rl" class="animable"></path><path d="M420.49,431.6a8.85,8.85,0,0,1-1.38-8.17,15.66,15.66,0,0,1,4.84-7,26,26,0,0,1,8.67-5.12,9.17,9.17,0,0,1,3.9-.66,4.1,4.1,0,0,1,3.27,2c.91,1.74,0,3.85-.91,5.57a66.39,66.39,0,0,1-5.69,8.67c-1.71,2.2-3.67,4.37-6.27,5.37s-5.3.87-6.68-.93" style="fill: rgb(38, 50, 56); transform-origin: 429.414px 421.761px;" id="elg8nvrwjrz6a" class="animable"></path><path d="M415.91,464.92a5.5,5.5,0,0,1-.15-1.11l-.3-3a41.5,41.5,0,0,0-.68-4.44,33.72,33.72,0,0,0-1.61-5.24,19.48,19.48,0,0,0-2.68-4.75,10.1,10.1,0,0,0-3.38-2.81,9.73,9.73,0,0,0-2.85-.89,5.64,5.64,0,0,1-1.1-.15,4.39,4.39,0,0,1,1.12,0,8.7,8.7,0,0,1,3,.77,10,10,0,0,1,3.57,2.84,18.41,18.41,0,0,1,2.77,4.84,32.47,32.47,0,0,1,1.61,5.32,40.85,40.85,0,0,1,.59,4.5c.09,1.28.13,2.32.15,3A5.44,5.44,0,0,1,415.91,464.92Z" style="fill: rgb(38, 50, 56); transform-origin: 409.568px 453.707px;" id="elef4ozgmsej" class="animable"></path><path d="M415.7,462.59a3.28,3.28,0,0,1,0-.51c0-.39,0-.87,0-1.47,0-1.28,0-3.13-.07-5.41-.11-4.57-.5-10.87-1.26-17.79s-1.78-13.16-2.71-17.64c-.21-1.12-.43-2.13-.64-3s-.37-1.65-.53-2.26l-.34-1.44a1.58,1.58,0,0,1-.09-.5,3,3,0,0,1,.18.48l.42,1.41c.19.61.39,1.37.61,2.25s.47,1.89.71,3a164.25,164.25,0,0,1,2.84,17.65c.76,6.94,1.11,13.26,1.14,17.83,0,2.29,0,4.14-.08,5.42q-.06.9-.09,1.47A1.75,1.75,0,0,1,415.7,462.59Z" style="fill: rgb(38, 50, 56); transform-origin: 413.01px 437.58px;" id="elzl2nri9wpk" class="animable"></path><path d="M415.67,450.41a11.4,11.4,0,0,1,0-1.54c.06-1,.2-2.42.47-4.17a55.85,55.85,0,0,1,1.36-6.07,53.66,53.66,0,0,1,2.54-7.18,38.15,38.15,0,0,1,7.45-11.6,18,18,0,0,1,1.75-1.63c.27-.23.51-.46.75-.64s.47-.32.68-.47a8.37,8.37,0,0,1,1.3-.82,44.81,44.81,0,0,0-4.25,3.78,40.59,40.59,0,0,0-7.26,11.56,56.06,56.06,0,0,0-2.55,7.12c-.67,2.23-1.11,4.28-1.45,6s-.5,3.14-.61,4.12A10,10,0,0,1,415.67,450.41Z" style="fill: rgb(38, 50, 56); transform-origin: 423.807px 433.35px;" id="elccwg31kyc9d" class="animable"></path></g><g id="freepik--Files--inject-452" class="animable animator-active" style="transform-origin: 261.698px 158.941px;"><g id="elgqqwmjqaxoq"><rect x="288.03" y="42.74" width="63.96" height="80" style="fill: rgb(235, 235, 235); transform-origin: 320.01px 82.74px; transform: rotate(-79.98deg);" class="animable"></rect></g><path d="M365,58.22l-.39-.06L363.47,58l-4.28-.74-16.14-2.79-56.9-10,.24-.16c-3.31,18.74-7.1,40.24-11.11,63h0l-.19-.26,78.78,14-.23.16c3.4-19,6.21-34.68,8.18-45.67,1-5.49,1.77-9.8,2.3-12.75l.62-3.37c.14-.76.23-1.16.23-1.16l-.18,1.13c-.13.76-.32,1.88-.57,3.33-.51,2.95-1.25,7.25-2.2,12.74-1.92,11-4.68,26.79-8,45.81l0,.19-.19,0L275,107.5l-.23,0,0-.23h0c4-22.74,7.84-44.23,11.16-63l0-.2.2,0,57,10.18,16.07,2.89,4.24.78,1.08.2Z" style="fill: rgb(38, 50, 56); transform-origin: 319.885px 82.765px;" id="elv4hy9gri52l" class="animable"></path><g id="elzqoamv6ldf7"><rect x="292" y="45.54" width="55.91" height="74.38" style="fill: rgb(38, 50, 56); transform-origin: 319.955px 82.73px; transform: rotate(-79.98deg);" class="animable"></rect></g><polygon points="278.47 103.79 310.1 74.09 322.16 98.3 334.94 88.76 351.71 116.74 278.47 103.79" style="fill: rgb(38, 50, 56); transform-origin: 315.09px 95.415px;" id="el2iplu1w2ybb" class="animable"></polygon><path d="M333.42,73.89a5.86,5.86,0,1,1-4.75-6.79A5.87,5.87,0,0,1,333.42,73.89Z" style="fill: rgb(38, 50, 56); transform-origin: 327.649px 72.8704px;" id="elldlqufz9ltk" class="animable"></path><g id="ela3tndel6sdh"><g style="opacity: 0.2; transform-origin: 315.09px 95.415px;" class="animable"><polygon points="278.47 103.79 310.1 74.09 322.16 98.3 334.94 88.76 351.71 116.74 278.47 103.79" id="elxbiq0g8523j" class="animable" style="transform-origin: 315.09px 95.415px;"></polygon></g></g><g id="ellqhlmi58wn"><g style="opacity: 0.2; transform-origin: 327.649px 72.8704px;" class="animable"><path d="M333.42,73.89a5.86,5.86,0,1,1-4.75-6.79A5.87,5.87,0,0,1,333.42,73.89Z" id="eluxkpohqp83r" class="animable" style="transform-origin: 327.649px 72.8704px;"></path></g></g><path d="M430.47,272.14l-45.54-13.37a5.94,5.94,0,0,1-4-7.37l18.5-63a6,6,0,0,1,7.38-4l28.88,8.48,15.59,29.6-13.41,45.69A5.94,5.94,0,0,1,430.47,272.14Z" style="fill: rgb(38, 50, 56); transform-origin: 415.984px 228.281px;" id="elqjlq8bfa46o" class="animable"></path><path d="M427.92,238.47s.38.1,1.12.16a5.63,5.63,0,0,0,3.09-.74,5.53,5.53,0,0,0,1.69-1.54,5,5,0,0,0,.63-1.16c.16-.42.29-.9.42-1.38l1.9-6.57,1.1-3.82c.19-.67.39-1.35.59-2a9.51,9.51,0,0,0,.45-2.09,6.09,6.09,0,0,0-1.3-4.17,5.93,5.93,0,0,0-1.76-1.5,9.42,9.42,0,0,0-2.27-.84l-20.91-6.09a5.87,5.87,0,0,0-5.08,1.47,5.61,5.61,0,0,0-1.47,2.22c-.3.84-.53,1.76-.8,2.62-1,3.5-2,6.87-3,10.09-.23.8-.52,1.61-.67,2.36a5.56,5.56,0,0,0,.08,2.3,5.48,5.48,0,0,0,2.62,3.44,8.66,8.66,0,0,0,2,.75l2,.61,3.81,1.13,11.5,3.46,3.11,1,.81.27.27.1-.28-.05-.82-.22-3.15-.87L412.13,234l-3.82-1.1-2-.59a9.7,9.7,0,0,1-2.1-.77,5.91,5.91,0,0,1-2.84-3.7,5.8,5.8,0,0,1-.1-2.49c.17-.84.44-1.59.66-2.41l3-10.1c.27-.88.49-1.74.8-2.65a6.11,6.11,0,0,1,1.6-2.41,6.34,6.34,0,0,1,5.52-1.6c7.48,2.13,14.5,4.24,20.94,6.13a10.77,10.77,0,0,1,2.37.89,6.71,6.71,0,0,1,1.88,1.63,6.54,6.54,0,0,1,1.37,4.46,9.58,9.58,0,0,1-.49,2.19c-.2.68-.4,1.36-.6,2-.39,1.33-.77,2.6-1.13,3.82l-2,6.55c-.14.48-.27,1-.45,1.4a5.56,5.56,0,0,1-.67,1.2,5.66,5.66,0,0,1-1.79,1.57,5.51,5.51,0,0,1-3.19.67A4.11,4.11,0,0,1,427.92,238.47Z" style="fill: rgb(250, 250, 250); transform-origin: 420.302px 222.391px;" id="elij0mks0nwr7" class="animable"></path><path d="M433.91,237s-.1-.14-.23-.44-.34-.77-.57-1.29l-2-4.79c-.42-1-.87-2.13-1.35-3.32-.25-.59-.5-1.21-.75-1.84l-.39-1a1.75,1.75,0,0,0-.61-.71,1.68,1.68,0,0,0-1.84,0L424.31,225l-4,2.85-1.78,1.27-.22.16-.14-.24L416,225.13l-.53-.94a2.66,2.66,0,0,0-.56-.79,1.78,1.78,0,0,0-1.69-.39,3.85,3.85,0,0,0-.82.4l-.83.47-1.58.89-2.83,1.59-4.09,2.26-1.12.59a2.29,2.29,0,0,1-.4.18s.11-.11.35-.26.65-.41,1.08-.67l4-2.39,2.8-1.64,1.57-.92.82-.48a3.94,3.94,0,0,1,.92-.45,2.24,2.24,0,0,1,2.12.47,3.11,3.11,0,0,1,.66.9l.53.94c.72,1.26,1.47,2.56,2.23,3.9l-.36-.08,1.78-1.27,4-2.84,1.9-1.35a2.13,2.13,0,0,1,3.12.91l.39,1,.72,1.86,1.3,3.34c.76,2,1.38,3.63,1.84,4.85.2.53.35,1,.48,1.33A1.93,1.93,0,0,1,433.91,237Z" style="fill: rgb(250, 250, 250); transform-origin: 417.73px 229.744px;" id="elhdeotw07m3g" class="animable"></path><path d="M419.75,219.48s.28,0,.76,0a3.07,3.07,0,0,0,1.84-.65,2.88,2.88,0,1,0-4.44-1.3,3.1,3.1,0,0,0,1.2,1.54c.4.26.66.34.64.39a1.52,1.52,0,0,1-.74-.22,3.12,3.12,0,0,1-1.43-1.58,3.25,3.25,0,0,1,.37-3.13,3.31,3.31,0,0,1,6,1.76,3.26,3.26,0,0,1-1.38,2.83,3,3,0,0,1-2.06.55A1.52,1.52,0,0,1,419.75,219.48Z" style="fill: rgb(250, 250, 250); transform-origin: 420.646px 216.414px;" id="elsahp730zilj" class="animable"></path><g id="elxyy19lgmo4d"><g style="opacity: 0.2; transform-origin: 411.015px 254.16px;" class="animable"><g id="el2p2rc0irkvd"><path d="M381.35,242.39h59.34a0,0,0,0,1,0,0v17.18a6.36,6.36,0,0,1-6.36,6.36H387.7a6.36,6.36,0,0,1-6.36-6.36V242.39A0,0,0,0,1,381.35,242.39Z" class="animable" style="transform-origin: 411.015px 254.16px; transform: rotate(16.36deg);"></path></g></g></g><path d="M435.66,192.82l-5.21,17.74a5.52,5.52,0,0,0,3.75,6.85l17.05,5Z" style="fill: rgb(38, 50, 56); transform-origin: 440.739px 207.615px;" id="els72llcdsdc8" class="animable"></path><g id="elaxw7vuw8b"><g style="opacity: 0.2; transform-origin: 440.626px 219.692px;" class="animable"><path d="M430.23,212.18s-1.49,4.24,3,7.09a5.45,5.45,0,0,0,.53.29c2.11,1.05,16,8,16.1,7.63l1.4-4.77-17.06-5S430,216,430.23,212.18Z" id="el915mn7cb1vj" class="animable" style="transform-origin: 440.626px 219.692px;"></path></g></g><path d="M406.16,251.85l1.87.55L407,256a6.43,6.43,0,0,1-3.91.07,4.78,4.78,0,1,1,2.73-9.15,4.94,4.94,0,0,1,3.26,2.62l-1.68.83a3.09,3.09,0,0,0-2-1.67,3,3,0,1,0-1.69,5.66,3.48,3.48,0,0,0,1.7.09Z" style="fill: rgb(250, 250, 250); transform-origin: 404.266px 251.494px;" id="elfx1mqfdvf9e" class="animable"></path><path d="M411.18,248.67l2.05.6-2.6,8.86-2.05-.6Z" style="fill: rgb(250, 250, 250); transform-origin: 410.905px 253.4px;" id="elsjj1kcg0j9l" class="animable"></path><path d="M416.89,252.13l-.68,2.34,4.1,1.21-.49,1.64-4.1-1.2-.94,3.22-2-.6,2.6-8.85,6.69,2-.48,1.65Z" style="fill: rgb(250, 250, 250); transform-origin: 417.425px 254.615px;" id="elx6yphu7nui" class="animable"></path><path d="M132.89,260.44,91.68,269.9a5.28,5.28,0,0,1-6.34-4l-13.09-57a5.28,5.28,0,0,1,4-6.34l26.14-6,25,16.21,9.49,41.34A5.28,5.28,0,0,1,132.89,260.44Z" style="fill: rgb(38, 50, 56); transform-origin: 104.564px 233.297px;" id="elz74ndcadf1q" class="animable"></path><path d="M102.36,196.55l3.68,16a4.92,4.92,0,0,0,5.9,3.7l15.43-3.54Z" style="fill: rgb(38, 50, 56); transform-origin: 114.865px 206.463px;" id="elkaxy57v3cha" class="animable"></path><g id="ell96lhk5gr2j"><g style="opacity: 0.2; transform-origin: 117.465px 215.514px;" class="animable"><path d="M106.57,214a5.49,5.49,0,0,0,5.42,4.21,4.87,4.87,0,0,0,.54,0c2.09-.1,15.9-.78,15.83-1.09l-1-4.31-15.43,3.54S108.05,217.05,106.57,214Z" id="elxjrgej4wqd" class="animable" style="transform-origin: 117.465px 215.514px;"></path></g></g><g id="el2y6t3s5ddxq"><g style="opacity: 0.3; transform-origin: 114.865px 206.463px;" class="animable"><path d="M102.36,196.55l3.68,16a4.92,4.92,0,0,0,5.9,3.7l15.43-3.54Z" style="fill: rgb(255, 255, 255); transform-origin: 114.865px 206.463px;" id="elnw5jryz6s3" class="animable"></path></g></g><path d="M102.43,212.74c0,.21-4.18,1.36-9.44,2.56s-9.57,2-9.62,1.82,4.18-1.35,9.45-2.56S102.39,212.54,102.43,212.74Z" style="fill: rgb(250, 250, 250); transform-origin: 92.8998px 214.927px;" id="elgzlyynpqoxr" class="animable"></path><path d="M116.83,219c0,.21-6.94,2-15.6,4S85.5,226.4,85.45,226.2s6.94-2,15.61-4S116.78,218.79,116.83,219Z" style="fill: rgb(250, 250, 250); transform-origin: 101.14px 222.599px;" id="elbym1xwqkvjf" class="animable"></path><path d="M121.4,225.92c0,.21-7.57,2.13-17,4.3S87.24,234,87.19,233.77s7.57-2.13,17-4.29S121.35,225.72,121.4,225.92Z" style="fill: rgb(250, 250, 250); transform-origin: 104.295px 229.847px;" id="elvxeroqk94w" class="animable"></path><path d="M123,233.07c0,.21-7.57,2.14-17,4.3s-17.14,3.76-17.19,3.56,7.57-2.14,17-4.3S123,232.87,123,233.07Z" style="fill: rgb(250, 250, 250); transform-origin: 105.905px 237px;" id="el3radaey151e" class="animable"></path><path d="M124.68,240.22c0,.21-7.57,2.14-17,4.3s-17.14,3.76-17.18,3.56,7.57-2.13,17-4.3S124.63,240,124.68,240.22Z" style="fill: rgb(250, 250, 250); transform-origin: 107.59px 244.148px;" id="elnieb2rsl2uh" class="animable"></path><path d="M126.32,247.38c.05.2-7.57,2.13-17,4.29s-17.15,3.76-17.19,3.56,7.57-2.13,17-4.3S126.27,247.17,126.32,247.38Z" style="fill: rgb(250, 250, 250); transform-origin: 109.225px 251.304px;" id="elkln2wyc3vhf" class="animable"></path></g><g id="freepik--Screen--inject-452" class="animable" style="transform-origin: 267.695px 222.175px;"><rect x="131.32" y="102.19" width="272.62" height="240.08" style="fill: rgb(245, 245, 245); transform-origin: 267.63px 222.23px;" id="el1q0faewlv0b" class="animable"></rect><path d="M403.94,342.27c0-1.85-.09-95.6-.22-240.08l.22.22-272.59,0h0l.26-.26c0,87.26,0,169.43,0,240.08l-.23-.22,272.62.22-272.62.23h-.23v-.23c0-70.65,0-152.82,0-240.08v-.26h.29l272.59,0h.22v.22C404,246.67,403.94,340.42,403.94,342.27Z" style="fill: rgb(38, 50, 56); transform-origin: 267.7px 222.175px;" id="ell9icdh9p5qj" class="animable"></path><path d="M174.86,193.21H159.4a1.93,1.93,0,0,1-1.94-1.93V169.87a1.94,1.94,0,0,1,1.94-1.94h9.8l7.6,7.83v15.52A1.93,1.93,0,0,1,174.86,193.21Z" style="fill: rgb(38, 50, 56); transform-origin: 167.13px 180.57px;" id="elqpzj6xqqlhc" class="animable"></path><path d="M169.2,167.93v6a1.81,1.81,0,0,0,1.8,1.8h5.8Z" style="fill: rgb(38, 50, 56); transform-origin: 173px 171.83px;" id="elehuxh6qada4" class="animable"></path><g id="eltwa1frmqd6q"><g style="opacity: 0.2; transform-origin: 173.04px 175.918px;" class="animable"><path d="M169.28,174.49a2,2,0,0,0,1.59,1.94l.19,0c.76.14,5.74,1,5.74.91v-1.62H171S169.56,175.71,169.28,174.49Z" id="el71iwope4ql3" class="animable" style="transform-origin: 173.04px 175.918px;"></path></g></g><g id="ela99gaq3ffm"><g style="opacity: 0.3; transform-origin: 173px 171.83px;" class="animable"><path d="M169.2,167.93v6a1.81,1.81,0,0,0,1.8,1.8h5.8Z" style="fill: rgb(255, 255, 255); transform-origin: 173px 171.83px;" id="elzxh00c1wys" class="animable"></path></g></g><path d="M167.91,173.71a22.59,22.59,0,0,1-3.58.14,22.59,22.59,0,0,1-3.58-.14,24.11,24.11,0,0,1,3.58-.14A24.11,24.11,0,0,1,167.91,173.71Z" style="fill: rgb(250, 250, 250); transform-origin: 164.33px 173.712px;" id="el4vkg5e70349" class="animable"></path><path d="M172.53,177.12c0,.08-2.64.14-5.89.14s-5.89-.06-5.89-.14,2.64-.14,5.89-.14S172.53,177,172.53,177.12Z" style="fill: rgb(250, 250, 250); transform-origin: 166.64px 177.12px;" id="eljajzpt6yba" class="animable"></path><path d="M173.59,180c0,.08-2.87.14-6.42.14s-6.42-.06-6.42-.14,2.88-.14,6.42-.14S173.59,179.89,173.59,180Z" style="fill: rgb(250, 250, 250); transform-origin: 167.17px 180px;" id="eld8ggucqy48e" class="animable"></path><path d="M173.59,182.65c0,.08-2.87.14-6.42.14s-6.42-.06-6.42-.14,2.88-.14,6.42-.14S173.59,182.57,173.59,182.65Z" style="fill: rgb(250, 250, 250); transform-origin: 167.17px 182.65px;" id="el54d2a0xm3e" class="animable"></path><path d="M173.59,185.33c0,.08-2.87.14-6.42.14s-6.42-.06-6.42-.14,2.88-.14,6.42-.14S173.59,185.26,173.59,185.33Z" style="fill: rgb(250, 250, 250); transform-origin: 167.17px 185.33px;" id="el4mh2es7v1yq" class="animable"></path><path d="M173.59,188c0,.07-2.87.14-6.42.14s-6.42-.07-6.42-.14,2.88-.14,6.42-.14S173.59,187.94,173.59,188Z" style="fill: rgb(250, 250, 250); transform-origin: 167.17px 188px;" id="elsgvmutgi7tg" class="animable"></path><path d="M189.94,170.62a1.58,1.58,0,0,1,.87.22l-.27.71a1,1,0,0,0-.53-.16c-.39,0-.6.22-.6.65v.25h1.12v.76h-1.09v3.28h-.95v-3.28h-.67v-.76h.67V172A1.31,1.31,0,0,1,189.94,170.62Zm1.71.39a.58.58,0,0,1,.61-.57.57.57,0,0,1,.61.55.61.61,0,0,1-1.22,0Zm.13,1.25h1v4.07h-1Z" style="fill: rgb(38, 50, 56); transform-origin: 190.345px 173.384px;" id="elaxxzkioi79e" class="animable"></path><path d="M194,170.67h1v5.66h-1Z" style="fill: rgb(38, 50, 56); transform-origin: 194.5px 173.5px;" id="el05liac7jjqmj" class="animable"></path><path d="M200,174.6h-3.19a1.24,1.24,0,0,0,1.32,1,1.45,1.45,0,0,0,1.1-.45l.51.59a2,2,0,0,1-1.64.66,2.07,2.07,0,0,1-2.25-2.09,2,2,0,0,1,2.11-2.08,2,2,0,0,1,2.06,2.11C200,174.39,200,174.51,200,174.6Zm-3.2-.63h2.31a1.17,1.17,0,0,0-2.31,0Z" style="fill: rgb(38, 50, 56); transform-origin: 197.936px 174.317px;" id="elrsrlk10u13a" class="animable"></path><path d="M205,174v2.33h-1v-2.21c0-.73-.36-1.08-1-1.08a1.08,1.08,0,0,0-1.14,1.23v2.06h-1v-4.07h.91v.52a1.76,1.76,0,0,1,1.4-.57A1.59,1.59,0,0,1,205,174Z" style="fill: rgb(38, 50, 56); transform-origin: 202.938px 174.26px;" id="eld760oo2e5dp" class="animable"></path><path d="M209.59,173.94v2.39h-.9v-.5a1.42,1.42,0,0,1-1.28.55c-.94,0-1.52-.51-1.52-1.22s.45-1.21,1.69-1.21h1v-.06c0-.56-.33-.89-1-.89a2,2,0,0,0-1.24.41l-.37-.7a2.89,2.89,0,0,1,1.72-.5C208.91,172.21,209.59,172.77,209.59,173.94Zm-1,1.12v-.48h-1c-.65,0-.82.25-.82.55s.29.56.77.56A1,1,0,0,0,208.63,175.06Z" style="fill: rgb(38, 50, 56); transform-origin: 207.74px 174.298px;" id="el7iz183p3v09" class="animable"></path><path d="M217.62,174v2.33h-1v-2.21c0-.73-.33-1.08-.91-1.08s-1.07.41-1.07,1.22v2.07h-.95v-2.21c0-.73-.33-1.08-.91-1.08s-1.07.41-1.07,1.22v2.07h-.95v-4.07h.91v.52a1.67,1.67,0,0,1,1.33-.57,1.53,1.53,0,0,1,1.38.68,1.89,1.89,0,0,1,1.52-.68A1.57,1.57,0,0,1,217.62,174Z" style="fill: rgb(38, 50, 56); transform-origin: 214.198px 174.266px;" id="eltolm5eahrc" class="animable"></path><path d="M222.7,174.6h-3.19a1.24,1.24,0,0,0,1.32,1,1.45,1.45,0,0,0,1.1-.45l.52.59a2.3,2.3,0,0,1-3.9-1.43,2,2,0,0,1,2.11-2.08,2,2,0,0,1,2.06,2.11C222.72,174.39,222.71,174.51,222.7,174.6Zm-3.2-.63h2.31a1.11,1.11,0,0,0-1.15-1A1.13,1.13,0,0,0,219.5,174Z" style="fill: rgb(38, 50, 56); transform-origin: 220.636px 174.312px;" id="elhblf1sdxjyb" class="animable"></path><path d="M223.32,175.75a.63.63,0,1,1,1.25,0,.63.63,0,1,1-1.25,0Z" style="fill: rgb(38, 50, 56); transform-origin: 223.945px 175.75px;" id="elwcdm2d58d8s" class="animable"></path><path d="M229.42,170.67v5.66h-.92v-.53a1.67,1.67,0,0,1-1.35.58,2.09,2.09,0,0,1,0-4.17,1.67,1.67,0,0,1,1.31.55v-2.09Zm-.94,3.62a1.22,1.22,0,1,0-1.22,1.28A1.2,1.2,0,0,0,228.48,174.29Z" style="fill: rgb(38, 50, 56); transform-origin: 227.312px 173.526px;" id="elrq12ptqdv9" class="animable"></path><path d="M230.33,174.29a2.18,2.18,0,1,1,2.17,2.09A2.05,2.05,0,0,1,230.33,174.29Zm3.38,0a1.21,1.21,0,1,0-1.21,1.28A1.18,1.18,0,0,0,233.71,174.29Z" style="fill: rgb(38, 50, 56); transform-origin: 232.508px 174.202px;" id="elugb13k24998" class="animable"></path><path d="M235.26,174.29a2.06,2.06,0,0,1,2.2-2.08,1.82,1.82,0,0,1,1.74.95l-.73.42a1.14,1.14,0,0,0-1-.56,1.28,1.28,0,0,0,0,2.55,1.15,1.15,0,0,0,1-.57l.73.43a1.84,1.84,0,0,1-1.74.95A2.07,2.07,0,0,1,235.26,174.29Z" style="fill: rgb(38, 50, 56); transform-origin: 237.23px 174.295px;" id="el0wgc9dkqdzh" class="animable"></path><path d="M188,182.62a2.05,2.05,0,0,1,2.14-2.08,2,2,0,0,1,1.5.6l-.28.27a1.6,1.6,0,0,0-1.2-.48,1.69,1.69,0,1,0,0,3.38,1.61,1.61,0,0,0,1.2-.49l.28.27a2,2,0,0,1-1.5.6A2,2,0,0,1,188,182.62Z" style="fill: rgb(224, 224, 224); transform-origin: 189.819px 182.617px;" id="el2knu08lan0m" class="animable"></path><path d="M192.05,183.13a1.56,1.56,0,1,1,1.56,1.56A1.51,1.51,0,0,1,192.05,183.13Zm2.7,0a1.14,1.14,0,1,0-1.14,1.19A1.12,1.12,0,0,0,194.75,183.13Z" style="fill: rgb(224, 224, 224); transform-origin: 193.61px 183.13px;" id="el1serdafut7h" class="animable"></path><path d="M201.07,182.88v1.78h-.41v-1.74c0-.64-.33-1-.88-1a1,1,0,0,0-1,1.11v1.61h-.41v-1.74c0-.64-.33-1-.89-1a1,1,0,0,0-1,1.11v1.61H196v-3.07h.4v.56a1.24,1.24,0,0,1,1.12-.58,1.1,1.1,0,0,1,1.09.65,1.33,1.33,0,0,1,1.22-.65A1.15,1.15,0,0,1,201.07,182.88Z" style="fill: rgb(224, 224, 224); transform-origin: 198.544px 183.092px;" id="el9uqm79udt1f" class="animable"></path><path d="M205.3,183.13a1.49,1.49,0,0,1-1.53,1.56,1.35,1.35,0,0,1-1.17-.61v1.71h-.41v-4.2h.4v.61a1.32,1.32,0,0,1,1.18-.63A1.49,1.49,0,0,1,205.3,183.13Zm-.42,0a1.14,1.14,0,1,0-1.14,1.19A1.12,1.12,0,0,0,204.88,183.13Z" style="fill: rgb(224, 224, 224); transform-origin: 203.746px 183.679px;" id="el1s8eqvx0ryd" class="animable"></path><path d="M206.14,180.33h.41v4.33h-.41Z" style="fill: rgb(224, 224, 224); transform-origin: 206.345px 182.495px;" id="el453b77ybtq1" class="animable"></path><path d="M210.37,183.25h-2.56a1.12,1.12,0,0,0,1.2,1.07,1.19,1.19,0,0,0,.94-.4l.24.27a1.54,1.54,0,0,1-1.19.5,1.52,1.52,0,0,1-1.61-1.56,1.48,1.48,0,0,1,1.5-1.56,1.46,1.46,0,0,1,1.49,1.56S210.37,183.21,210.37,183.25Zm-2.56-.3H210a1.09,1.09,0,0,0-2.17,0Z" style="fill: rgb(224, 224, 224); transform-origin: 208.886px 183.131px;" id="eltm0dyy6odyc" class="animable"></path><path d="M212.83,184.47a.94.94,0,0,1-.64.22.81.81,0,0,1-.9-.89v-1.86h-.55v-.35h.55v-.67h.41v.67h.94v.35h-.94v1.83a.49.49,0,0,0,.53.56.73.73,0,0,0,.46-.15Z" style="fill: rgb(224, 224, 224); transform-origin: 211.785px 182.808px;" id="elpyxfwldvb78" class="animable"></path><path d="M216.14,183.25h-2.56a1.12,1.12,0,0,0,1.2,1.07,1.19,1.19,0,0,0,.94-.4l.24.27a1.54,1.54,0,0,1-1.19.5,1.52,1.52,0,0,1-1.61-1.56,1.48,1.48,0,0,1,1.5-1.56,1.46,1.46,0,0,1,1.49,1.56S216.14,183.21,216.14,183.25Zm-2.56-.3h2.17a1.09,1.09,0,0,0-2.17,0Z" style="fill: rgb(224, 224, 224); transform-origin: 214.656px 183.131px;" id="elmrb25wgybnk" class="animable"></path><rect x="186.25" y="187.99" width="181.21" height="3.32" rx="1.66" style="fill: rgb(38, 50, 56); transform-origin: 276.855px 189.65px;" id="elsmhj994ixg" class="animable"></rect><path d="M376.67,186.68a13.43,13.43,0,0,1-2.42,2.78,13.26,13.26,0,0,1-2.78,2.41,13.55,13.55,0,0,1,2.41-2.78A13.17,13.17,0,0,1,376.67,186.68Z" style="fill: rgb(38, 50, 56); transform-origin: 374.07px 189.275px;" id="elk1qjk988nec" class="animable"></path><path d="M376.55,191.87a13.26,13.26,0,0,1-2.78-2.41,13.43,13.43,0,0,1-2.42-2.78,13.26,13.26,0,0,1,2.78,2.41A13.43,13.43,0,0,1,376.55,191.87Z" style="fill: rgb(38, 50, 56); transform-origin: 373.95px 189.275px;" id="elio5mntaz82" class="animable"></path><path d="M351.18,183.49c0,.68-.5,1.21-1.48,1.21a2.14,2.14,0,0,1-1.47-.53l.2-.33a1.83,1.83,0,0,0,1.27.47c.68,0,1.05-.31,1.05-.82s-.35-.81-1.1-.81h-.29v-.31l1.13-1.42H348.4v-.37H351v.3l-1.15,1.45C350.74,182.38,351.18,182.84,351.18,183.49Z" style="fill: rgb(224, 224, 224); transform-origin: 349.705px 182.64px;" id="eltajam5rf15d" class="animable"></path><path d="M357.89,180.58v4.08h-.41V181.4l-1.61,2.74h-.2l-1.6-2.73v3.25h-.42v-4.08H354l1.77,3,1.75-3Z" style="fill: rgb(224, 224, 224); transform-origin: 355.77px 182.62px;" id="elw8ooqv4phqh" class="animable"></path><path d="M362.62,183.57c0,.69-.51,1.09-1.53,1.09h-1.88v-4.08H361c.91,0,1.44.38,1.44,1a1,1,0,0,1-.63.93A1,1,0,0,1,362.62,183.57Zm-3-2.63v1.48h1.3c.66,0,1-.25,1-.74s-.37-.74-1-.74Zm2.55,2.6c0-.54-.39-.77-1.11-.77h-1.44v1.53h1.44C361.8,184.3,362.19,184.07,362.19,183.54Z" style="fill: rgb(224, 224, 224); transform-origin: 360.916px 182.62px;" id="elogkco08r429" class="animable"></path><path d="M174.86,233.56H159.4a1.94,1.94,0,0,1-1.94-1.94V210.21a1.93,1.93,0,0,1,1.94-1.93h9.8l7.6,7.82v15.52A1.94,1.94,0,0,1,174.86,233.56Z" style="fill: rgb(38, 50, 56); transform-origin: 167.13px 220.92px;" id="elehmgpk1ovlb" class="animable"></path><path d="M169.2,208.28v6a1.8,1.8,0,0,0,1.8,1.8h5.8Z" style="fill: rgb(38, 50, 56); transform-origin: 173px 212.18px;" id="elrs2rgam2z1" class="animable"></path><g id="elqyy938w1z9"><g style="opacity: 0.2; transform-origin: 173.04px 216.258px;" class="animable"><path d="M169.28,214.83a2,2,0,0,0,1.59,1.94l.19,0c.76.14,5.74,1,5.74.91V216.1H171S169.56,216.05,169.28,214.83Z" id="elmz3tdgn4w5k" class="animable" style="transform-origin: 173.04px 216.258px;"></path></g></g><g id="elnxhespshyho"><g style="opacity: 0.3; transform-origin: 173px 212.18px;" class="animable"><path d="M169.2,208.28v6a1.8,1.8,0,0,0,1.8,1.8h5.8Z" style="fill: rgb(255, 255, 255); transform-origin: 173px 212.18px;" id="elj76h7vj23l" class="animable"></path></g></g><path d="M167.91,214.06a24.11,24.11,0,0,1-3.58.14,24.11,24.11,0,0,1-3.58-.14,22.59,22.59,0,0,1,3.58-.14A22.59,22.59,0,0,1,167.91,214.06Z" style="fill: rgb(250, 250, 250); transform-origin: 164.33px 214.058px;" id="el9dk6p3fsnzn" class="animable"></path><path d="M172.53,217.46c0,.08-2.64.14-5.89.14s-5.89-.06-5.89-.14,2.64-.14,5.89-.14S172.53,217.38,172.53,217.46Z" style="fill: rgb(250, 250, 250); transform-origin: 166.64px 217.46px;" id="elvun845ers4" class="animable"></path><path d="M173.59,220.31c0,.07-2.87.14-6.42.14s-6.42-.07-6.42-.14,2.88-.14,6.42-.14S173.59,220.23,173.59,220.31Z" style="fill: rgb(250, 250, 250); transform-origin: 167.17px 220.31px;" id="elaqze8yzydl9" class="animable"></path><path d="M173.59,223c0,.08-2.87.14-6.42.14s-6.42-.06-6.42-.14,2.88-.14,6.42-.14S173.59,222.91,173.59,223Z" style="fill: rgb(250, 250, 250); transform-origin: 167.17px 223px;" id="elcgwr6dcwwxw" class="animable"></path><path d="M173.59,225.67c0,.08-2.87.14-6.42.14s-6.42-.06-6.42-.14,2.88-.14,6.42-.14S173.59,225.6,173.59,225.67Z" style="fill: rgb(250, 250, 250); transform-origin: 167.17px 225.67px;" id="elc2011ixtwui" class="animable"></path><path d="M173.59,228.36c0,.08-2.87.14-6.42.14s-6.42-.06-6.42-.14,2.88-.14,6.42-.14S173.59,228.28,173.59,228.36Z" style="fill: rgb(250, 250, 250); transform-origin: 167.17px 228.36px;" id="el6udodzuesv3" class="animable"></path><path d="M189.94,211a1.58,1.58,0,0,1,.87.22l-.27.72a1,1,0,0,0-.53-.17c-.39,0-.6.22-.6.66v.24h1.12v.76h-1.09v3.28h-.95v-3.28h-.67v-.76h.67v-.26A1.31,1.31,0,0,1,189.94,211Zm1.71.39a.58.58,0,0,1,.61-.57.57.57,0,0,1,.61.55.61.61,0,0,1-1.22,0Zm.13,1.25h1v4.07h-1Z" style="fill: rgb(38, 50, 56); transform-origin: 190.345px 213.764px;" id="el7y2wu8ikp9q" class="animable"></path><path d="M194,211h1v5.66h-1Z" style="fill: rgb(38, 50, 56); transform-origin: 194.5px 213.83px;" id="eld5ipbph3oo" class="animable"></path><path d="M200,214.94h-3.19a1.23,1.23,0,0,0,1.32,1,1.48,1.48,0,0,0,1.1-.44l.51.58a2,2,0,0,1-1.64.67,2.07,2.07,0,0,1-2.25-2.09,2,2,0,0,1,2.11-2.09,2,2,0,0,1,2.06,2.11C200,214.73,200,214.85,200,214.94Zm-3.2-.63h2.31a1.17,1.17,0,0,0-2.31,0Z" style="fill: rgb(38, 50, 56); transform-origin: 197.935px 214.662px;" id="elibqqjmtver" class="animable"></path><path d="M205,214.34v2.33h-1v-2.21c0-.72-.36-1.08-1-1.08a1.09,1.09,0,0,0-1.14,1.23v2.06h-1V212.6h.91v.53a1.74,1.74,0,0,1,1.4-.58A1.59,1.59,0,0,1,205,214.34Z" style="fill: rgb(38, 50, 56); transform-origin: 202.938px 214.6px;" id="elw6f8cgiehx" class="animable"></path><path d="M209.59,214.28v2.39h-.9v-.49a1.44,1.44,0,0,1-1.28.55c-.94,0-1.52-.51-1.52-1.22s.45-1.22,1.69-1.22h1v-.06c0-.56-.33-.88-1-.88a2,2,0,0,0-1.24.4l-.37-.69a2.83,2.83,0,0,1,1.72-.51C208.91,212.55,209.59,213.11,209.59,214.28Zm-1,1.12v-.47h-1c-.65,0-.82.24-.82.54s.29.56.77.56A1,1,0,0,0,208.63,215.4Z" style="fill: rgb(38, 50, 56); transform-origin: 207.74px 214.643px;" id="elqundy521kb" class="animable"></path><path d="M217.62,214.34v2.33h-1v-2.21c0-.72-.33-1.08-.91-1.08s-1.07.42-1.07,1.23v2.06h-.95v-2.21c0-.72-.33-1.08-.91-1.08s-1.07.42-1.07,1.23v2.06h-.95V212.6h.91v.52a1.67,1.67,0,0,1,1.33-.57,1.53,1.53,0,0,1,1.38.68,1.89,1.89,0,0,1,1.52-.68A1.57,1.57,0,0,1,217.62,214.34Z" style="fill: rgb(38, 50, 56); transform-origin: 214.198px 214.606px;" id="ele4131txkymh" class="animable"></path><path d="M222.7,214.94h-3.19a1.23,1.23,0,0,0,1.32,1,1.48,1.48,0,0,0,1.1-.44l.52.58a2.29,2.29,0,0,1-3.9-1.42,2,2,0,0,1,2.11-2.09,2,2,0,0,1,2.06,2.11C222.72,214.73,222.71,214.85,222.7,214.94Zm-3.2-.63h2.31a1.1,1.1,0,0,0-1.15-1A1.12,1.12,0,0,0,219.5,214.31Z" style="fill: rgb(38, 50, 56); transform-origin: 220.635px 214.659px;" id="el7p6hy3qq9vf" class="animable"></path><path d="M223.32,216.09a.63.63,0,1,1,1.25,0,.63.63,0,1,1-1.25,0Z" style="fill: rgb(38, 50, 56); transform-origin: 223.945px 216.09px;" id="elnbepdp1a1dd" class="animable"></path><path d="M224.24,218l.28-.71a.9.9,0,0,0,.55.16c.36,0,.55-.21.55-.65V212.6h1v4.15a1.32,1.32,0,0,1-1.42,1.46A1.56,1.56,0,0,1,224.24,218Zm1.25-6.62a.58.58,0,0,1,.61-.57.57.57,0,0,1,.61.55.59.59,0,0,1-.61.6A.58.58,0,0,1,225.49,211.35Z" style="fill: rgb(38, 50, 56); transform-origin: 225.475px 214.514px;" id="ells5etm0u6vn" class="animable"></path><path d="M232.16,214.64a2,2,0,0,1-2.07,2.09,1.7,1.7,0,0,1-1.31-.55v2h-.95V212.6h.91v.53a1.67,1.67,0,0,1,1.35-.58A2,2,0,0,1,232.16,214.64Zm-1,0a1.21,1.21,0,1,0-1.21,1.27A1.19,1.19,0,0,0,231.19,214.64Z" style="fill: rgb(38, 50, 56); transform-origin: 229.996px 215.364px;" id="elzh303nv7sma" class="animable"></path><path d="M237.11,212.6v3.45a1.92,1.92,0,0,1-2.2,2.16,3.25,3.25,0,0,1-2-.58l.43-.72a2.45,2.45,0,0,0,1.5.49c.9,0,1.3-.41,1.3-1.24V216a1.83,1.83,0,0,1-1.37.54,2,2,0,1,1,0-3.94,1.77,1.77,0,0,1,1.41.59v-.54Zm-.94,1.91a1.24,1.24,0,1,0-1.23,1.17A1.15,1.15,0,0,0,236.17,214.51Z" style="fill: rgb(38, 50, 56); transform-origin: 234.777px 215.402px;" id="elumc9o737mlg" class="animable"></path><path d="M188.4,220.92h.43v3.71h2.28V225H188.4Z" style="fill: rgb(224, 224, 224); transform-origin: 189.755px 222.96px;" id="elzbx5rzbjky" class="animable"></path><path d="M191.38,223.47a1.56,1.56,0,1,1,1.56,1.56A1.51,1.51,0,0,1,191.38,223.47Zm2.7,0a1.14,1.14,0,1,0-1.14,1.19A1.12,1.12,0,0,0,194.08,223.47Z" style="fill: rgb(224, 224, 224); transform-origin: 192.94px 223.47px;" id="elcq4l5hiqb1" class="animable"></path><path d="M197.64,223.1V225h-.4v-.48a1.13,1.13,0,0,1-1.05.51c-.7,0-1.12-.36-1.12-.89s.3-.87,1.18-.87h1v-.19a.75.75,0,0,0-.86-.81,1.56,1.56,0,0,0-1,.36l-.19-.3a1.9,1.9,0,0,1,1.25-.42A1.09,1.09,0,0,1,197.64,223.1Zm-.42,1v-.5h-1c-.59,0-.78.23-.78.55s.28.57.77.57A1,1,0,0,0,197.22,224.08Z" style="fill: rgb(224, 224, 224); transform-origin: 196.358px 223.47px;" id="elrnuixss6j0a" class="animable"></path><path d="M201.57,220.68V225h-.4v-.6A1.32,1.32,0,0,1,200,225a1.56,1.56,0,0,1,0-3.12,1.35,1.35,0,0,1,1.17.61v-1.84Zm-.41,2.79a1.14,1.14,0,1,0-1.14,1.19A1.12,1.12,0,0,0,201.16,223.47Z" style="fill: rgb(224, 224, 224); transform-origin: 200.005px 222.826px;" id="elt7vdew5vre" class="animable"></path><path d="M202.63,221a.29.29,0,0,1,.3-.29.28.28,0,0,1,.3.28.3.3,0,1,1-.6,0Zm.09,1h.41V225h-.41Z" style="fill: rgb(224, 224, 224); transform-origin: 202.93px 222.855px;" id="el4gzabpvm1xn" class="animable"></path><path d="M207.11,223.22V225h-.42v-1.74a.85.85,0,0,0-.92-1,1,1,0,0,0-1.07,1.1V225h-.42v-3.06h.4v.56a1.3,1.3,0,0,1,1.17-.59A1.18,1.18,0,0,1,207.11,223.22Z" style="fill: rgb(224, 224, 224); transform-origin: 205.699px 223.453px;" id="ela9qrs8inq9v" class="animable"></path><path d="M211.08,221.94v2.69a1.35,1.35,0,0,1-1.54,1.53,2.13,2.13,0,0,1-1.42-.47l.21-.32a1.77,1.77,0,0,0,1.2.42c.78,0,1.13-.35,1.13-1.11v-.39a1.37,1.37,0,0,1-1.19.6,1.47,1.47,0,0,1-1.54-1.5,1.46,1.46,0,0,1,1.54-1.48,1.39,1.39,0,0,1,1.21.61v-.58Zm-.4,1.45a1.17,1.17,0,1,0-1.17,1.13A1.1,1.1,0,0,0,210.68,223.39Z" style="fill: rgb(224, 224, 224); transform-origin: 209.512px 224.042px;" id="elq0rnortyac" class="animable"></path><path d="M213.49,224.71a.31.31,0,1,1,.62,0,.31.31,0,1,1-.62,0Z" style="fill: rgb(224, 224, 224); transform-origin: 213.8px 224.71px;" id="elmy22qj2huoq" class="animable"></path><path d="M214.72,224.71a.31.31,0,0,1,.31-.31.31.31,0,0,1,.32.31.32.32,0,0,1-.32.32A.31.31,0,0,1,214.72,224.71Z" style="fill: rgb(224, 224, 224); transform-origin: 215.035px 224.715px;" id="elmaqxawtyqlg" class="animable"></path><path d="M216,224.71a.31.31,0,0,1,.62,0,.31.31,0,1,1-.62,0Z" style="fill: rgb(224, 224, 224); transform-origin: 216.31px 224.71px;" id="elpo3dvspccp8" class="animable"></path><path d="M365.8,231.66H187.91a1.66,1.66,0,0,1-1.66-1.66h0a1.66,1.66,0,0,1,1.66-1.67H365.8a1.66,1.66,0,0,1,1.66,1.67h0A1.66,1.66,0,0,1,365.8,231.66Z" style="fill: rgb(224, 224, 224); transform-origin: 276.855px 229.995px;" id="ell2zzssu8gl" class="animable"></path><path d="M291.85,231.66H187.91a1.66,1.66,0,0,1-1.66-1.66h0a1.66,1.66,0,0,1,1.66-1.67H291.85a1.66,1.66,0,0,1,1.66,1.67h0A1.66,1.66,0,0,1,291.85,231.66Z" style="fill: rgb(38, 50, 56); transform-origin: 239.88px 229.995px;" id="elg3woqclg7ad" class="animable"></path><path d="M376.67,227a13.14,13.14,0,0,1-2.42,2.78,12.57,12.57,0,0,1-2.78,2.41,13.55,13.55,0,0,1,2.41-2.78A13.17,13.17,0,0,1,376.67,227Z" style="fill: rgb(38, 50, 56); transform-origin: 374.07px 229.595px;" id="elyp4kp588k4s" class="animable"></path><path d="M376.55,232.21a12.57,12.57,0,0,1-2.78-2.41,13.14,13.14,0,0,1-2.42-2.78,13.26,13.26,0,0,1,2.78,2.41A13.43,13.43,0,0,1,376.55,232.21Z" style="fill: rgb(38, 50, 56); transform-origin: 373.95px 229.615px;" id="el8wqcdaf7wkl" class="animable"></path><path d="M351.27,224.63V225h-2.86v-.3L350.1,223c.46-.45.55-.73.55-1,0-.47-.33-.76-1-.76a1.39,1.39,0,0,0-1.11.46l-.3-.26a1.85,1.85,0,0,1,1.45-.58c.83,0,1.35.42,1.35,1.1a1.65,1.65,0,0,1-.67,1.27L349,224.63Z" style="fill: rgb(224, 224, 224); transform-origin: 349.755px 222.929px;" id="elaaocj1bve0m" class="animable"></path><path d="M351.76,223c0-1.3.69-2.07,1.63-2.07s1.63.77,1.63,2.07-.68,2.08-1.63,2.08S351.76,224.26,351.76,223Zm2.83,0c0-1.09-.49-1.69-1.2-1.69s-1.2.6-1.2,1.69.49,1.69,1.2,1.69S354.59,224.05,354.59,223Z" style="fill: rgb(224, 224, 224); transform-origin: 353.39px 223.005px;" id="eludzmnh5a8oq" class="animable"></path><path d="M358.56,223.46l-.73.67V225h-.41v-4.32h.41v2.93l1.83-1.67h.52l-1.32,1.25L360.3,225h-.51Z" style="fill: rgb(224, 224, 224); transform-origin: 358.86px 222.84px;" id="elxe6rkhxlow" class="animable"></path><path d="M364,223.47A1.48,1.48,0,0,1,362.5,225a1.34,1.34,0,0,1-1.19-.63v.6h-.39v-4.32h.41v1.84a1.35,1.35,0,0,1,1.17-.61A1.48,1.48,0,0,1,364,223.47Zm-.41,0a1.14,1.14,0,1,0-1.14,1.19A1.12,1.12,0,0,0,363.61,223.47Z" style="fill: rgb(224, 224, 224); transform-origin: 362.462px 222.826px;" id="elnlcf85ehpm" class="animable"></path><path d="M174.86,274.45H159.4a1.94,1.94,0,0,1-1.94-1.94V251.1a1.94,1.94,0,0,1,1.94-1.93h9.8l7.6,7.83v15.51A1.94,1.94,0,0,1,174.86,274.45Z" style="fill: rgb(38, 50, 56); transform-origin: 167.13px 261.81px;" id="eltk6i9g2h9r" class="animable"></path><path d="M169.2,249.17v6A1.8,1.8,0,0,0,171,257h5.8Z" style="fill: rgb(38, 50, 56); transform-origin: 173px 253.085px;" id="elydxh7v6pia" class="animable"></path><g id="el19v5vp0sglm"><g style="opacity: 0.2; transform-origin: 173.04px 257.144px;" class="animable"><path d="M169.28,255.72a2,2,0,0,0,1.59,1.94l.19,0c.76.13,5.74,1,5.74.9V257H171S169.56,257,169.28,255.72Z" id="elfanz8k550d8" class="animable" style="transform-origin: 173.04px 257.144px;"></path></g></g><g id="el9eenhmls1eu"><g style="opacity: 0.3; transform-origin: 173px 253.085px;" class="animable"><path d="M169.2,249.17v6A1.8,1.8,0,0,0,171,257h5.8Z" style="fill: rgb(255, 255, 255); transform-origin: 173px 253.085px;" id="el96zwbcayqma" class="animable"></path></g></g><path d="M167.91,255a22.59,22.59,0,0,1-3.58.14,22.59,22.59,0,0,1-3.58-.14,22.59,22.59,0,0,1,3.58-.14A22.59,22.59,0,0,1,167.91,255Z" style="fill: rgb(250, 250, 250); transform-origin: 164.33px 255px;" id="elu2dyq36z2or" class="animable"></path><path d="M172.53,258.35c0,.08-2.64.15-5.89.15s-5.89-.07-5.89-.15,2.64-.14,5.89-.14S172.53,258.28,172.53,258.35Z" style="fill: rgb(250, 250, 250); transform-origin: 166.64px 258.355px;" id="elhha0tdm12fb" class="animable"></path><path d="M173.59,261.2c0,.08-2.87.14-6.42.14s-6.42-.06-6.42-.14,2.88-.14,6.42-.14S173.59,261.12,173.59,261.2Z" style="fill: rgb(250, 250, 250); transform-origin: 167.17px 261.2px;" id="el1eyfm1ljspn" class="animable"></path><path d="M173.59,263.88c0,.08-2.87.14-6.42.14s-6.42-.06-6.42-.14,2.88-.14,6.42-.14S173.59,263.81,173.59,263.88Z" style="fill: rgb(250, 250, 250); transform-origin: 167.17px 263.88px;" id="elcp9t1j27rp" class="animable"></path><path d="M173.59,266.57c0,.07-2.87.14-6.42.14s-6.42-.07-6.42-.14,2.88-.14,6.42-.14S173.59,266.49,173.59,266.57Z" style="fill: rgb(250, 250, 250); transform-origin: 167.17px 266.57px;" id="el6dttues7ewm" class="animable"></path><path d="M173.59,269.25c0,.08-2.87.14-6.42.14s-6.42-.06-6.42-.14,2.88-.14,6.42-.14S173.59,269.17,173.59,269.25Z" style="fill: rgb(250, 250, 250); transform-origin: 167.17px 269.25px;" id="elkbpfqjll5am" class="animable"></path><path d="M189.94,251.85a1.58,1.58,0,0,1,.87.22l-.27.72a1,1,0,0,0-.53-.17c-.39,0-.6.22-.6.66v.24h1.12v.77h-1.09v3.28h-.95v-3.28h-.67v-.77h.67v-.26A1.31,1.31,0,0,1,189.94,251.85Zm1.71.4a.58.58,0,0,1,.61-.57.56.56,0,0,1,.61.55.61.61,0,0,1-1.22,0Zm.13,1.24h1v4.08h-1Z" style="fill: rgb(38, 50, 56); transform-origin: 190.345px 254.624px;" id="elxrgzr1619k" class="animable"></path><path d="M194,251.91h1v5.66h-1Z" style="fill: rgb(38, 50, 56); transform-origin: 194.5px 254.74px;" id="el7yyqc04ynnl" class="animable"></path><path d="M200,255.83h-3.19a1.23,1.23,0,0,0,1.32,1,1.45,1.45,0,0,0,1.1-.44l.51.59a2.29,2.29,0,0,1-3.89-1.43,2,2,0,0,1,2.11-2.08,2,2,0,0,1,2.06,2.1C200,255.63,200,255.74,200,255.83Zm-3.2-.63h2.31a1.11,1.11,0,0,0-1.15-1A1.13,1.13,0,0,0,196.81,255.2Z" style="fill: rgb(38, 50, 56); transform-origin: 197.935px 255.554px;" id="elykt47xjelac" class="animable"></path><path d="M205,255.23v2.34h-1v-2.22c0-.72-.36-1.07-1-1.07a1.08,1.08,0,0,0-1.14,1.23v2.06h-1v-4.08h.91V254a1.73,1.73,0,0,1,1.4-.57A1.58,1.58,0,0,1,205,255.23Z" style="fill: rgb(38, 50, 56); transform-origin: 202.939px 255.488px;" id="elzkw75o2451" class="animable"></path><path d="M209.59,255.18v2.39h-.9v-.5a1.44,1.44,0,0,1-1.28.55c-.94,0-1.52-.51-1.52-1.22s.45-1.21,1.69-1.21h1v-.06c0-.56-.33-.89-1-.89a2,2,0,0,0-1.24.4L206,254a2.82,2.82,0,0,1,1.72-.5C208.91,253.45,209.59,254,209.59,255.18Zm-1,1.11v-.47h-1c-.65,0-.82.24-.82.54s.29.57.77.57A1,1,0,0,0,208.63,256.29Z" style="fill: rgb(38, 50, 56); transform-origin: 207.74px 255.562px;" id="elnk194t5n3vl" class="animable"></path><path d="M217.62,255.23v2.34h-1v-2.22c0-.72-.33-1.07-.91-1.07s-1.07.41-1.07,1.22v2.07h-.95v-2.22c0-.72-.33-1.07-.91-1.07s-1.07.41-1.07,1.22v2.07h-.95v-4.08h.91V254a1.66,1.66,0,0,1,1.33-.56,1.53,1.53,0,0,1,1.38.68,1.89,1.89,0,0,1,1.52-.68A1.56,1.56,0,0,1,217.62,255.23Z" style="fill: rgb(38, 50, 56); transform-origin: 214.199px 255.5px;" id="el3sx7e7b7few" class="animable"></path><path d="M222.7,255.83h-3.19a1.23,1.23,0,0,0,1.32,1,1.45,1.45,0,0,0,1.1-.44l.52.59a2.09,2.09,0,0,1-1.65.66,2.07,2.07,0,0,1-2.25-2.09,2,2,0,0,1,2.11-2.08,2,2,0,0,1,2.06,2.1C222.72,255.63,222.71,255.74,222.7,255.83Zm-3.2-.63h2.31a1.1,1.1,0,0,0-1.15-1A1.13,1.13,0,0,0,219.5,255.2Z" style="fill: rgb(38, 50, 56); transform-origin: 220.635px 255.557px;" id="elgxiwbaml4aa" class="animable"></path><path d="M223.32,257a.63.63,0,1,1,.62.63A.62.62,0,0,1,223.32,257Z" style="fill: rgb(38, 50, 56); transform-origin: 223.95px 257px;" id="elaize7b5kfe" class="animable"></path><path d="M229.83,255.53a2,2,0,0,1-2.07,2.09,1.7,1.7,0,0,1-1.31-.55v2h-.95v-5.56h.91V254a1.67,1.67,0,0,1,1.35-.58A2,2,0,0,1,229.83,255.53Zm-1,0a1.21,1.21,0,1,0-1.21,1.27A1.19,1.19,0,0,0,228.86,255.53Z" style="fill: rgb(38, 50, 56); transform-origin: 227.667px 256.244px;" id="elk02p3n7v29" class="animable"></path><path d="M234.75,255.23v2.34h-.95v-2.22c0-.72-.36-1.07-1-1.07a1.08,1.08,0,0,0-1.14,1.23v2.06h-.95v-4.08h.91V254a1.75,1.75,0,0,1,1.4-.57A1.58,1.58,0,0,1,234.75,255.23Z" style="fill: rgb(38, 50, 56); transform-origin: 232.738px 255.496px;" id="el3dbyipfjszy" class="animable"></path><path d="M240.05,253.49V257a1.92,1.92,0,0,1-2.2,2.15,3.25,3.25,0,0,1-2-.58l.43-.72a2.45,2.45,0,0,0,1.5.49c.9,0,1.3-.41,1.3-1.23v-.22a1.79,1.79,0,0,1-1.37.54,2,2,0,1,1,0-3.93,1.76,1.76,0,0,1,1.41.58v-.54Zm-.94,1.92a1.24,1.24,0,1,0-1.23,1.16A1.15,1.15,0,0,0,239.11,255.41Z" style="fill: rgb(38, 50, 56); transform-origin: 237.702px 256.319px;" id="els5ftfqha97" class="animable"></path><path d="M188.4,261.81h.43v3.71h2.28v.37H188.4Z" style="fill: rgb(224, 224, 224); transform-origin: 189.755px 263.85px;" id="elvwc2egsfc6" class="animable"></path><path d="M191.38,264.36a1.56,1.56,0,1,1,1.56,1.56A1.51,1.51,0,0,1,191.38,264.36Zm2.7,0a1.14,1.14,0,1,0-2.28,0,1.14,1.14,0,1,0,2.28,0Z" style="fill: rgb(224, 224, 224); transform-origin: 192.94px 264.36px;" id="el0ufdb74mmgfg" class="animable"></path><path d="M197.64,264v1.9h-.4v-.47a1.15,1.15,0,0,1-1.05.5c-.7,0-1.12-.36-1.12-.89s.3-.87,1.18-.87h1V264c0-.53-.29-.81-.86-.81a1.56,1.56,0,0,0-1,.36l-.19-.31a2,2,0,0,1,1.25-.41A1.08,1.08,0,0,1,197.64,264Zm-.42,1v-.5h-1c-.59,0-.78.23-.78.55s.28.58.77.58A1,1,0,0,0,197.22,265Z" style="fill: rgb(224, 224, 224); transform-origin: 196.357px 264.379px;" id="elcl3uo0sri7i" class="animable"></path><path d="M201.57,261.57v4.32h-.4v-.6a1.32,1.32,0,0,1-1.18.63,1.56,1.56,0,0,1,0-3.11,1.34,1.34,0,0,1,1.17.6v-1.84Zm-.41,2.79a1.14,1.14,0,1,0-1.14,1.2A1.12,1.12,0,0,0,201.16,264.36Z" style="fill: rgb(224, 224, 224); transform-origin: 200.062px 263.746px;" id="elfb5kvn8h78p" class="animable"></path><path d="M202.63,261.86a.3.3,0,0,1,.6,0,.3.3,0,1,1-.6,0Zm.09,1h.41v3.06h-.41Z" style="fill: rgb(224, 224, 224); transform-origin: 202.93px 263.74px;" id="el7fyrp059i06" class="animable"></path><path d="M207.11,264.12v1.77h-.42v-1.73a.86.86,0,0,0-.92-1,1,1,0,0,0-1.07,1.11v1.6h-.42v-3.06h.4v.56a1.3,1.3,0,0,1,1.17-.58A1.18,1.18,0,0,1,207.11,264.12Z" style="fill: rgb(224, 224, 224); transform-origin: 205.7px 264.338px;" id="eleuxkkc0oo4q" class="animable"></path><path d="M211.08,262.83v2.69a1.34,1.34,0,0,1-1.54,1.53,2.08,2.08,0,0,1-1.42-.47l.21-.31a1.82,1.82,0,0,0,1.2.42c.78,0,1.13-.36,1.13-1.12v-.39a1.37,1.37,0,0,1-1.19.6,1.49,1.49,0,1,1,0-3,1.37,1.37,0,0,1,1.21.61v-.59Zm-.4,1.46a1.17,1.17,0,1,0-1.17,1.12A1.1,1.1,0,0,0,210.68,264.29Z" style="fill: rgb(224, 224, 224); transform-origin: 209.533px 264.923px;" id="elb51kmq9gg3" class="animable"></path><path d="M213.49,265.6a.31.31,0,0,1,.62,0,.31.31,0,1,1-.62,0Z" style="fill: rgb(224, 224, 224); transform-origin: 213.8px 265.6px;" id="elirjvsvhcz5o" class="animable"></path><path d="M214.72,265.6a.31.31,0,0,1,.31-.31.31.31,0,0,1,.32.31.32.32,0,0,1-.32.32A.31.31,0,0,1,214.72,265.6Z" style="fill: rgb(224, 224, 224); transform-origin: 215.035px 265.605px;" id="elqx5r51glw6p" class="animable"></path><path d="M216,265.6a.31.31,0,0,1,.62,0,.31.31,0,1,1-.62,0Z" style="fill: rgb(224, 224, 224); transform-origin: 216.31px 265.6px;" id="el90jj36jx4k9" class="animable"></path><path d="M365.8,272.55H187.91a1.66,1.66,0,0,1-1.66-1.66h0a1.66,1.66,0,0,1,1.66-1.66H365.8a1.66,1.66,0,0,1,1.66,1.66h0A1.66,1.66,0,0,1,365.8,272.55Z" style="fill: rgb(224, 224, 224); transform-origin: 276.855px 270.89px;" id="elt8pdlu973nk" class="animable"></path><path d="M227.36,272.55H187.91a1.66,1.66,0,0,1-1.66-1.66h0a1.66,1.66,0,0,1,1.66-1.66h39.45a1.66,1.66,0,0,1,1.66,1.66h0A1.66,1.66,0,0,1,227.36,272.55Z" style="fill: rgb(38, 50, 56); transform-origin: 207.635px 270.89px;" id="elsg85sn90xb" class="animable"></path><path d="M376.67,267.91a26.68,26.68,0,0,1-5.2,5.2,13.26,13.26,0,0,1,2.41-2.78A13,13,0,0,1,376.67,267.91Z" style="fill: rgb(38, 50, 56); transform-origin: 374.07px 270.51px;" id="elwyd9b6u2cv" class="animable"></path><path d="M376.55,273.11a26.68,26.68,0,0,1-5.2-5.2,26.68,26.68,0,0,1,5.2,5.2Z" style="fill: rgb(38, 50, 56); transform-origin: 373.95px 270.51px;" id="eluo99m5uvpj" class="animable"></path><path d="M351.18,264.72c0,.69-.5,1.21-1.48,1.21a2.13,2.13,0,0,1-1.47-.52l.2-.34a1.79,1.79,0,0,0,1.27.47c.68,0,1.05-.31,1.05-.82s-.35-.81-1.1-.81h-.29v-.31l1.13-1.41H348.4v-.38H351v.3l-1.15,1.45C350.74,263.61,351.18,264.07,351.18,264.72Z" style="fill: rgb(224, 224, 224); transform-origin: 349.705px 263.871px;" id="eldbqmqhb6pv" class="animable"></path><path d="M354.52,265.52v.37h-2.86v-.29l1.7-1.66c.46-.46.54-.73.54-1,0-.48-.33-.77-.95-.77a1.36,1.36,0,0,0-1.11.46l-.3-.26a1.83,1.83,0,0,1,1.44-.58c.83,0,1.36.42,1.36,1.1a1.72,1.72,0,0,1-.67,1.28l-1.39,1.36Z" style="fill: rgb(224, 224, 224); transform-origin: 353.03px 263.839px;" id="elsq3r1aw1iq" class="animable"></path><path d="M361.17,261.81v4.08h-.42v-3.26l-1.6,2.75H359l-1.61-2.73v3.24h-.41v-4.08h.36l1.77,3,1.75-3Z" style="fill: rgb(224, 224, 224); transform-origin: 359.075px 263.85px;" id="ellwk6gva754n" class="animable"></path><path d="M365.9,264.8c0,.7-.51,1.09-1.53,1.09h-1.88v-4.08h1.76c.91,0,1.43.39,1.43,1.05a1,1,0,0,1-.62.93A1,1,0,0,1,365.9,264.8Zm-3-2.63v1.48h1.3c.65,0,1-.25,1-.74s-.38-.74-1-.74Zm2.55,2.6c0-.53-.39-.76-1.11-.76h-1.44v1.53h1.44C365.08,265.54,365.47,265.31,365.47,264.77Z" style="fill: rgb(224, 224, 224); transform-origin: 364.195px 263.85px;" id="elfbvkjfrgox" class="animable"></path><path d="M174.86,315.34H159.4a1.94,1.94,0,0,1-1.94-1.93V292a1.94,1.94,0,0,1,1.94-1.94h9.8l7.6,7.83v15.52A1.94,1.94,0,0,1,174.86,315.34Z" style="fill: rgb(38, 50, 56); transform-origin: 167.13px 302.7px;" id="elu9i0s3itnm" class="animable"></path><path d="M169.2,290.06v6a1.81,1.81,0,0,0,1.8,1.8h5.8Z" style="fill: rgb(38, 50, 56); transform-origin: 173px 293.96px;" id="el8h270rn6eic" class="animable"></path><g id="elzq0h0o6p6l"><g style="opacity: 0.2; transform-origin: 173.04px 298.048px;" class="animable"><path d="M169.28,296.62a2,2,0,0,0,1.59,1.94l.19,0c.76.14,5.74,1,5.74.91v-1.62H171S169.56,297.84,169.28,296.62Z" id="el0k3pjbcnapq" class="animable" style="transform-origin: 173.04px 298.048px;"></path></g></g><g id="el7tdcg1mjrfq"><g style="opacity: 0.3; transform-origin: 173px 293.96px;" class="animable"><path d="M169.2,290.06v6a1.81,1.81,0,0,0,1.8,1.8h5.8Z" style="fill: rgb(255, 255, 255); transform-origin: 173px 293.96px;" id="el4upo011yspr" class="animable"></path></g></g><path d="M167.91,295.84a22.59,22.59,0,0,1-3.58.14,22.59,22.59,0,0,1-3.58-.14,22.59,22.59,0,0,1,3.58-.14A22.59,22.59,0,0,1,167.91,295.84Z" style="fill: rgb(250, 250, 250); transform-origin: 164.33px 295.84px;" id="elc5h0pvyj0xe" class="animable"></path><path d="M172.53,299.25c0,.08-2.64.14-5.89.14s-5.89-.06-5.89-.14,2.64-.14,5.89-.14S172.53,299.17,172.53,299.25Z" style="fill: rgb(250, 250, 250); transform-origin: 166.64px 299.25px;" id="elvhiz1irh8v" class="animable"></path><path d="M173.59,302.09c0,.08-2.87.14-6.42.14s-6.42-.06-6.42-.14,2.88-.14,6.42-.14S173.59,302,173.59,302.09Z" style="fill: rgb(250, 250, 250); transform-origin: 167.17px 302.09px;" id="ellvokzqbsq3" class="animable"></path><path d="M173.59,304.78c0,.07-2.87.14-6.42.14s-6.42-.07-6.42-.14,2.88-.14,6.42-.14S173.59,304.7,173.59,304.78Z" style="fill: rgb(250, 250, 250); transform-origin: 167.17px 304.78px;" id="elbi9g5mcslpt" class="animable"></path><path d="M173.59,307.46c0,.08-2.87.14-6.42.14s-6.42-.06-6.42-.14,2.88-.14,6.42-.14S173.59,307.38,173.59,307.46Z" style="fill: rgb(250, 250, 250); transform-origin: 167.17px 307.46px;" id="el0c33tmvsdfmr" class="animable"></path><path d="M173.59,310.14c0,.08-2.87.14-6.42.14s-6.42-.06-6.42-.14,2.88-.14,6.42-.14S173.59,310.07,173.59,310.14Z" style="fill: rgb(250, 250, 250); transform-origin: 167.17px 310.14px;" id="ela6l7h47n5d8" class="animable"></path><path d="M189.94,292.74a1.51,1.51,0,0,1,.87.23l-.27.71a1,1,0,0,0-.53-.16c-.39,0-.6.22-.6.65v.25h1.12v.76h-1.09v3.28h-.95v-3.28h-.67v-.76h.67v-.26A1.32,1.32,0,0,1,189.94,292.74Zm1.71.4a.58.58,0,0,1,.61-.57.57.57,0,0,1,.61.55.61.61,0,0,1-1.22,0Zm.13,1.24h1v4.08h-1Z" style="fill: rgb(38, 50, 56); transform-origin: 190.345px 295.514px;" id="el842072pdo6" class="animable"></path><path d="M194,292.8h1v5.66h-1Z" style="fill: rgb(38, 50, 56); transform-origin: 194.5px 295.63px;" id="eldqbnkvlxz7" class="animable"></path><path d="M200,296.73h-3.19a1.23,1.23,0,0,0,1.32,1,1.45,1.45,0,0,0,1.1-.44l.51.59a2.29,2.29,0,0,1-3.89-1.43,2,2,0,0,1,2.11-2.08,2,2,0,0,1,2.06,2.11C200,296.52,200,296.64,200,296.73Zm-3.2-.64h2.31a1.17,1.17,0,0,0-2.31,0Z" style="fill: rgb(38, 50, 56); transform-origin: 197.936px 296.454px;" id="el17buljl3a76" class="animable"></path><path d="M205,296.12v2.34h-1v-2.21c0-.73-.36-1.08-1-1.08a1.08,1.08,0,0,0-1.14,1.23v2.06h-1v-4.08h.91v.53a1.76,1.76,0,0,1,1.4-.57A1.59,1.59,0,0,1,205,296.12Z" style="fill: rgb(38, 50, 56); transform-origin: 202.937px 296.39px;" id="ello6glm98x6c" class="animable"></path><path d="M209.59,296.07v2.39h-.9V298a1.44,1.44,0,0,1-1.28.55c-.94,0-1.52-.51-1.52-1.22s.45-1.21,1.69-1.21h1V296c0-.56-.33-.89-1-.89a2,2,0,0,0-1.24.41l-.37-.7a2.89,2.89,0,0,1,1.72-.5C208.91,294.34,209.59,294.9,209.59,296.07Zm-1,1.11v-.47h-1c-.65,0-.82.25-.82.54s.29.57.77.57A1,1,0,0,0,208.63,297.18Z" style="fill: rgb(38, 50, 56); transform-origin: 207.74px 296.438px;" id="eltukgzdrvhy" class="animable"></path><path d="M217.62,296.12v2.34h-1v-2.21c0-.73-.33-1.08-.91-1.08s-1.07.41-1.07,1.22v2.07h-.95v-2.21c0-.73-.33-1.08-.91-1.08s-1.07.41-1.07,1.22v2.07h-.95v-4.08h.91v.52a1.7,1.7,0,0,1,1.33-.56,1.53,1.53,0,0,1,1.38.68,1.89,1.89,0,0,1,1.52-.68A1.56,1.56,0,0,1,217.62,296.12Z" style="fill: rgb(38, 50, 56); transform-origin: 214.199px 296.395px;" id="el0zqkao2x5h3d" class="animable"></path><path d="M222.7,296.73h-3.19a1.23,1.23,0,0,0,1.32,1,1.45,1.45,0,0,0,1.1-.44l.52.59a2.09,2.09,0,0,1-1.65.66,2.07,2.07,0,0,1-2.25-2.09,2,2,0,0,1,2.11-2.08,2,2,0,0,1,2.06,2.11C222.72,296.52,222.71,296.64,222.7,296.73Zm-3.2-.64h2.31a1.11,1.11,0,0,0-1.15-1A1.13,1.13,0,0,0,219.5,296.09Z" style="fill: rgb(38, 50, 56); transform-origin: 220.636px 296.457px;" id="el4sqphndl8g8" class="animable"></path><path d="M223.32,297.88a.63.63,0,1,1,1.25,0,.63.63,0,1,1-1.25,0Z" style="fill: rgb(38, 50, 56); transform-origin: 223.945px 297.88px;" id="elk2fzy99tb99" class="animable"></path><path d="M229.83,296.42a2,2,0,0,1-2.07,2.09,1.67,1.67,0,0,1-1.31-.55v2h-.95v-5.56h.91v.54a1.67,1.67,0,0,1,1.35-.58A2,2,0,0,1,229.83,296.42Zm-1,0a1.21,1.21,0,1,0-2.42,0,1.21,1.21,0,1,0,2.42,0Z" style="fill: rgb(38, 50, 56); transform-origin: 227.666px 297.159px;" id="el8vas1ll3kb7" class="animable"></path><path d="M234.73,292.8v5.66h-.92v-.53a1.67,1.67,0,0,1-1.35.58,2.09,2.09,0,0,1,0-4.17,1.66,1.66,0,0,1,1.32.55V292.8Zm-.94,3.62a1.22,1.22,0,1,0-1.21,1.28A1.19,1.19,0,0,0,233.79,296.42Z" style="fill: rgb(38, 50, 56); transform-origin: 232.622px 295.656px;" id="el1wadke2izuf" class="animable"></path><path d="M237,294.17v.25h1.12v.76h-1.09v3.28h-1v-3.28h-.67v-.76h.67v-.26a1.33,1.33,0,0,1,1.46-1.42,1.45,1.45,0,0,1,.86.23l-.26.71a1,1,0,0,0-.53-.16C237.24,293.52,237,293.74,237,294.17Z" style="fill: rgb(38, 50, 56); transform-origin: 236.855px 295.597px;" id="elsv13kvkjk9f" class="animable"></path><path d="M188.4,302.71h.43v3.7h2.28v.38H188.4Z" style="fill: rgb(224, 224, 224); transform-origin: 189.755px 304.75px;" id="eltmbzi52bbu" class="animable"></path><path d="M191.38,305.25a1.56,1.56,0,1,1,1.56,1.57A1.52,1.52,0,0,1,191.38,305.25Zm2.7,0a1.14,1.14,0,1,0-1.14,1.2A1.12,1.12,0,0,0,194.08,305.25Z" style="fill: rgb(224, 224, 224); transform-origin: 192.94px 305.26px;" id="ellzqaebepl1" class="animable"></path><path d="M197.64,304.89v1.9h-.4v-.48a1.15,1.15,0,0,1-1.05.51c-.7,0-1.12-.37-1.12-.9s.3-.86,1.18-.86h1v-.19c0-.53-.29-.81-.86-.81a1.56,1.56,0,0,0-1,.36l-.19-.31a2,2,0,0,1,1.25-.41A1.09,1.09,0,0,1,197.64,304.89Zm-.42,1v-.5h-1c-.59,0-.78.23-.78.54s.28.58.77.58A1,1,0,0,0,197.22,305.87Z" style="fill: rgb(224, 224, 224); transform-origin: 196.358px 305.259px;" id="el90c6i803la" class="animable"></path><path d="M201.57,302.46v4.33h-.4v-.61a1.33,1.33,0,0,1-1.18.64,1.56,1.56,0,0,1,0-3.12,1.36,1.36,0,0,1,1.17.6v-1.84Zm-.41,2.79a1.14,1.14,0,1,0-1.14,1.2A1.12,1.12,0,0,0,201.16,305.25Z" style="fill: rgb(224, 224, 224); transform-origin: 200px 304.64px;" id="el7i5092r5ua5" class="animable"></path><path d="M202.63,302.75a.3.3,0,0,1,.3-.29.3.3,0,1,1-.3.29Zm.09,1h.41v3.07h-.41Z" style="fill: rgb(224, 224, 224); transform-origin: 202.93px 304.64px;" id="elttxkq2a4yo" class="animable"></path><path d="M207.11,305v1.78h-.42v-1.74a.86.86,0,0,0-.92-1,1,1,0,0,0-1.07,1.11v1.61h-.42v-3.07h.4v.57a1.28,1.28,0,0,1,1.17-.59A1.18,1.18,0,0,1,207.11,305Z" style="fill: rgb(224, 224, 224); transform-origin: 205.7px 305.223px;" id="eli0qqd0hfdp" class="animable"></path><path d="M211.08,303.72v2.69a1.35,1.35,0,0,1-1.54,1.54,2.08,2.08,0,0,1-1.42-.48l.21-.31a1.82,1.82,0,0,0,1.2.42c.78,0,1.13-.36,1.13-1.11v-.39a1.36,1.36,0,0,1-1.19.59,1.49,1.49,0,1,1,0-3,1.39,1.39,0,0,1,1.21.61v-.59Zm-.4,1.46a1.17,1.17,0,1,0-1.17,1.12A1.1,1.1,0,0,0,210.68,305.18Z" style="fill: rgb(224, 224, 224); transform-origin: 209.533px 305.817px;" id="ela7q4qk3nv05" class="animable"></path><path d="M213.49,306.5a.31.31,0,1,1,.31.32A.31.31,0,0,1,213.49,306.5Z" style="fill: rgb(224, 224, 224); transform-origin: 213.8px 306.51px;" id="eleu27z9pd5q" class="animable"></path><path d="M214.72,306.5a.31.31,0,0,1,.31-.32.32.32,0,0,1,0,.64A.31.31,0,0,1,214.72,306.5Z" style="fill: rgb(224, 224, 224); transform-origin: 215.035px 306.5px;" id="el0f2018vi1ej" class="animable"></path><path d="M216,306.5a.31.31,0,1,1,.31.32A.31.31,0,0,1,216,306.5Z" style="fill: rgb(224, 224, 224); transform-origin: 216.31px 306.51px;" id="eljthaw8sxyob" class="animable"></path><path d="M365.8,313.44H187.91a1.66,1.66,0,0,1-1.66-1.66h0a1.66,1.66,0,0,1,1.66-1.66H365.8a1.66,1.66,0,0,1,1.66,1.66h0A1.66,1.66,0,0,1,365.8,313.44Z" style="fill: rgb(224, 224, 224); transform-origin: 276.855px 311.78px;" id="eltwte30srhtl" class="animable"></path><path d="M340.52,313.44H187.91a1.66,1.66,0,0,1-1.66-1.66h0a1.66,1.66,0,0,1,1.66-1.66H340.52a1.66,1.66,0,0,1,1.66,1.66h0A1.66,1.66,0,0,1,340.52,313.44Z" style="fill: rgb(38, 50, 56); transform-origin: 264.215px 311.78px;" id="elk5lmlkncwwi" class="animable"></path><path d="M376.67,308.8a13,13,0,0,1-2.42,2.79,13.26,13.26,0,0,1-2.78,2.41,13.26,13.26,0,0,1,2.41-2.78A13,13,0,0,1,376.67,308.8Z" style="fill: rgb(38, 50, 56); transform-origin: 374.07px 311.4px;" id="elzqj5oud7b4g" class="animable"></path><path d="M376.55,314a13.26,13.26,0,0,1-2.78-2.41,13,13,0,0,1-2.42-2.79,26.68,26.68,0,0,1,5.2,5.2Z" style="fill: rgb(38, 50, 56); transform-origin: 373.95px 311.4px;" id="el97zdi8mspob" class="animable"></path><path d="M349.61,302.71v4.08h-.42v-3.71h-1v-.37Z" style="fill: rgb(224, 224, 224); transform-origin: 348.9px 304.75px;" id="elr3l4xxpjakc" class="animable"></path><path d="M353.35,305.59c0,.69-.48,1.23-1.48,1.23a2.09,2.09,0,0,1-1.46-.52l.2-.34a1.75,1.75,0,0,0,1.26.48c.69,0,1.06-.34,1.06-.84s-.33-.85-1.37-.85h-.87l.21-2h2.24v.37h-1.87l-.14,1.3h.53C352.89,304.38,353.35,304.86,353.35,305.59Z" style="fill: rgb(224, 224, 224); transform-origin: 351.88px 304.786px;" id="elamor568hvtw" class="animable"></path><path d="M360,302.71v4.08h-.41v-3.27l-1.6,2.75h-.21l-1.6-2.73v3.25h-.42v-4.08h.36l1.77,3,1.76-3Z" style="fill: rgb(224, 224, 224); transform-origin: 357.88px 304.75px;" id="ele2darer1u6" class="animable"></path><path d="M364.74,305.7c0,.69-.52,1.09-1.54,1.09h-1.87v-4.08h1.76c.91,0,1.43.38,1.43,1.05a.94.94,0,0,1-.62.92A1,1,0,0,1,364.74,305.7Zm-3-2.64v1.48h1.3c.65,0,1-.25,1-.74s-.38-.74-1-.74Zm2.54,2.6c0-.53-.39-.76-1.1-.76h-1.44v1.53h1.44C363.91,306.43,364.3,306.2,364.3,305.66Z" style="fill: rgb(224, 224, 224); transform-origin: 363.035px 304.75px;" id="elfnejslpooxd" class="animable"></path><path d="M150.05,124.77v-3.35h.85v3.31c0,1.31.59,1.89,1.65,1.89s1.67-.58,1.67-1.89v-3.31H155v3.35a2.49,2.49,0,1,1-5,0Z" style="fill: rgb(38, 50, 56); transform-origin: 152.5px 124.345px;" id="eligsfncieq5q" class="animable"></path><path d="M161.26,125.08a2.17,2.17,0,0,1-2.26,2.28,1.9,1.9,0,0,1-1.55-.73v2.31h-.81v-6.09h.77v.71a1.9,1.9,0,0,1,1.59-.75A2.17,2.17,0,0,1,161.26,125.08Zm-.82,0a1.5,1.5,0,1,0-1.5,1.57A1.48,1.48,0,0,0,160.44,125.08Z" style="fill: rgb(38, 50, 56); transform-origin: 158.951px 125.874px;" id="elntgdtjhqha" class="animable"></path><path d="M162.38,121.07h.8v6.24h-.8Z" style="fill: rgb(38, 50, 56); transform-origin: 162.78px 124.19px;" id="elof2i2em30u" class="animable"></path><path d="M164.31,125.08a2.32,2.32,0,1,1,2.32,2.28A2.21,2.21,0,0,1,164.31,125.08Zm3.82,0a1.5,1.5,0,1,0-1.5,1.57A1.47,1.47,0,0,0,168.13,125.08Z" style="fill: rgb(38, 50, 56); transform-origin: 166.629px 125.041px;" id="elzgb70ipnkm" class="animable"></path><path d="M173.55,124.61v2.7h-.76v-.59a1.68,1.68,0,0,1-1.47.64c-1,0-1.64-.54-1.64-1.32s.46-1.3,1.79-1.3h1.27v-.16c0-.68-.39-1.08-1.19-1.08a2.26,2.26,0,0,0-1.41.48l-.34-.6a3,3,0,0,1,1.84-.57C172.86,122.81,173.55,123.4,173.55,124.61Zm-.81,1.33v-.62H171.5c-.8,0-1,.31-1,.69s.37.72,1,.72A1.28,1.28,0,0,0,172.74,125.94Z" style="fill: rgb(38, 50, 56); transform-origin: 171.615px 125.088px;" id="ely3sg81makii" class="animable"></path><path d="M179.28,121.07v6.24h-.77v-.71a1.92,1.92,0,0,1-1.59.76,2.28,2.28,0,0,1,0-4.55,1.88,1.88,0,0,1,1.55.71v-2.45Zm-.8,4a1.5,1.5,0,1,0-1.5,1.57A1.47,1.47,0,0,0,178.48,125.08Z" style="fill: rgb(38, 50, 56); transform-origin: 177.035px 124.215px;" id="elxl1hgqu4suk" class="animable"></path><path d="M184.66,121a1.48,1.48,0,0,1,.91.26l-.24.61a1,1,0,0,0-.63-.21c-.47,0-.72.27-.72.78v.39h1.3v.66H184v3.8h-.81v-3.8h-.76v-.66h.76v-.4A1.34,1.34,0,0,1,184.66,121Zm1.91.45a.54.54,0,0,1,.55-.53.53.53,0,1,1,0,1A.53.53,0,0,1,186.57,121.47Zm.14,1.38h.81v4.46h-.81Z" style="fill: rgb(38, 50, 56); transform-origin: 185.128px 124.09px;" id="els54phkakv2a" class="animable"></path><path d="M189.06,121.07h.81v6.24h-.81Z" style="fill: rgb(38, 50, 56); transform-origin: 189.465px 124.19px;" id="elx2ipz78zkb" class="animable"></path><path d="M195.42,125.35H191.8a1.51,1.51,0,0,0,1.62,1.3,1.65,1.65,0,0,0,1.28-.54l.45.52a2.42,2.42,0,0,1-4.15-1.55,2.18,2.18,0,0,1,2.23-2.27,2.15,2.15,0,0,1,2.21,2.29A2.29,2.29,0,0,1,195.42,125.35Zm-3.62-.58h2.86a1.44,1.44,0,0,0-2.86,0Z" style="fill: rgb(38, 50, 56); transform-origin: 193.221px 125.085px;" id="elts994xc4qpm" class="animable"></path><path d="M196,126.83l.34-.63a2.93,2.93,0,0,0,1.56.46c.75,0,1.06-.23,1.06-.61,0-1-2.81-.13-2.81-1.91,0-.79.71-1.33,1.85-1.33a3.3,3.3,0,0,1,1.63.4l-.35.64a2.32,2.32,0,0,0-1.28-.35c-.71,0-1.06.26-1.06.61,0,1,2.83.19,2.83,1.93,0,.8-.74,1.32-1.93,1.32A3.17,3.17,0,0,1,196,126.83Z" style="fill: rgb(38, 50, 56); transform-origin: 197.885px 125.085px;" id="elguwpzx4fsub" class="animable"></path><path d="M403.94,140.34c0,.15-61.08.27-136.4.27s-136.4-.12-136.4-.27,61.06-.26,136.4-.26S403.94,140.2,403.94,140.34Z" style="fill: rgb(38, 50, 56); transform-origin: 267.54px 140.345px;" id="el1460uargyg8" class="animable"></path></g><g id="freepik--Cloud--inject-452" class="animable" style="transform-origin: 151.961px 383.92px;"><path d="M271.32,464.75H32.64s-2.81-56.16,46.8-59.9c0,0,8.22-47.49,63.64-47.74,66.46-.29,67.28,57.55,67.28,57.55s54.41-5.13,61,50.09" style="fill: rgb(245, 245, 245); transform-origin: 151.985px 410.929px;" id="elv2wwhel5x2d" class="animable"></path><path d="M271.32,464.75s0-.13-.08-.4-.11-.67-.2-1.19-.18-1.18-.31-2a25.37,25.37,0,0,0-.5-2.68c-.22-1-.47-2.13-.75-3.37s-.74-2.54-1.16-4-1.06-2.91-1.66-4.51l-1.1-2.41c-.19-.41-.39-.83-.58-1.25l-.69-1.25c-.48-.83-.9-1.73-1.47-2.57l-1.7-2.6-2-2.58c-.7-.86-1.49-1.68-2.25-2.55a47.59,47.59,0,0,0-11.82-9.11,58.28,58.28,0,0,0-15.91-5.92A69.71,69.71,0,0,0,220,415a62.08,62.08,0,0,0-9.66-.14h-.23v-.23a56.81,56.81,0,0,0-1.39-10,66.38,66.38,0,0,0-3.06-10A57.89,57.89,0,0,0,194,376a54.17,54.17,0,0,0-8.78-7.49c-.8-.57-1.65-1.05-2.48-1.58l-1.26-.77-1.31-.69c-.88-.45-1.75-.94-2.65-1.36L174.78,363c-.91-.43-1.87-.73-2.82-1.07s-1.88-.71-2.86-1c-1.95-.52-3.89-1.17-5.91-1.52l-3-.63-3.06-.44c-2-.35-4.11-.49-6.18-.65a110.69,110.69,0,0,0-12.87-.13l-3.17.27-1.57.14-1.57.22-3.11.46-3.06.64A64.09,64.09,0,0,0,113.88,363a60.12,60.12,0,0,0-10.46,5.84A58.18,58.18,0,0,0,87.78,385.4a63.65,63.65,0,0,0-5,9.61,53.61,53.61,0,0,0-3.14,9.88l0,.17h-.17a52.87,52.87,0,0,0-17.62,4.26,41.85,41.85,0,0,0-13.37,9.33,49.3,49.3,0,0,0-8.29,11.74,61.54,61.54,0,0,0-4.44,11.4,81.7,81.7,0,0,0-2.91,16.89c-.13,2-.17,3.49-.18,4.51s0,1.55,0,1.55,0-.52-.07-1.55,0-2.54.12-4.52a80.64,80.64,0,0,1,2.79-16.95,62.38,62.38,0,0,1,4.41-11.47A49.79,49.79,0,0,1,48.2,418.4,42.39,42.39,0,0,1,61.67,409a53.18,53.18,0,0,1,17.75-4.33l-.2.18a54.08,54.08,0,0,1,3.14-10,65.12,65.12,0,0,1,5-9.69,58.55,58.55,0,0,1,15.75-16.7,61.2,61.2,0,0,1,10.55-5.9,64.85,64.85,0,0,1,11.81-3.79l3.08-.64,3.13-.46,1.58-.23,1.58-.13,3.19-.28a111.92,111.92,0,0,1,12.94.13c2.08.16,4.16.31,6.21.65l3.08.45,3,.63c2,.36,4,1,5.94,1.53,1,.28,1.93.66,2.89,1s1.92.65,2.83,1.08l2.77,1.21c.91.42,1.78.92,2.67,1.37l1.32.69,1.27.79c.84.53,1.7,1,2.51,1.58a55.28,55.28,0,0,1,8.86,7.58,58.26,58.26,0,0,1,11.76,18.8,67.42,67.42,0,0,1,3.08,10.12,58.35,58.35,0,0,1,1.38,10.05l-.25-.22a61.63,61.63,0,0,1,9.73.17,69,69,0,0,1,9.18,1.43,58.66,58.66,0,0,1,16,6,47.79,47.79,0,0,1,11.87,9.21c.77.88,1.56,1.71,2.25,2.58l2,2.61c.58.89,1.14,1.77,1.7,2.62s1,1.75,1.46,2.59l.68,1.25.58,1.26,1.09,2.43c.6,1.61,1.18,3.11,1.64,4.54l1.14,4c.26,1.24.5,2.37.72,3.38s.36,1.91.47,2.69.2,1.43.27,2,.13.92.17,1.2S271.32,464.75,271.32,464.75Z" style="fill: rgb(38, 50, 56); transform-origin: 151.941px 410.826px;" id="els4ae43je5dj" class="animable"></path><polygon points="140.18 303.09 140.18 303.09 140.18 303.09 140.18 303.09 95.53 343.55 122.49 343.55 122.49 400.8 139.17 400.8 141.19 400.8 157.87 400.8 157.87 343.55 184.83 343.55 140.18 303.09" style="fill: rgb(38, 50, 56); transform-origin: 140.18px 351.945px;" id="elr2zc4n1didd" class="animable"></polygon><path d="M108.5,381.25c15.69-3.95,25.88.48,33.13,10.63,6.21-10.68,20.53-13.61,32-9l7.21,27.32-43.92,5.75-36.71-6.73Z" style="fill: rgb(245, 245, 245); transform-origin: 140.525px 397.883px;" id="elrmch7tb42zd" class="animable"></path><path d="M170.15,382c0,.05-.87-.3-2.46-.73a21.19,21.19,0,0,0-6.91-.61,24.18,24.18,0,0,0-4.75.8,25,25,0,0,0-5.11,2.12,21.54,21.54,0,0,0-8.82,8.94l-.21.42-.25-.41-.92-1.49a23.45,23.45,0,0,0-4.6-5.14,25.68,25.68,0,0,0-5.44-3.44,26.23,26.23,0,0,0-10.56-2.55,24.28,24.28,0,0,0-7.32.87c-1.67.51-2.57.88-2.59.83a3,3,0,0,1,.64-.3,18.16,18.16,0,0,1,1.9-.72,23,23,0,0,1,7.38-1,26.5,26.5,0,0,1,16.32,6,24,24,0,0,1,4.71,5.24l.94,1.53h-.46a21.74,21.74,0,0,1,9.05-9.12,23.19,23.19,0,0,1,10.07-2.87,20.58,20.58,0,0,1,7,.78,13.73,13.73,0,0,1,1.79.65A3,3,0,0,1,170.15,382Z" style="fill: rgb(38, 50, 56); transform-origin: 140.18px 386.261px;" id="elv2a6lenx61h" class="animable"></path></g><g id="freepik--Character--inject-452" class="animable" style="transform-origin: 273.354px 362.37px;"><path d="M226.19,292c-2.06-6.61-1.2-17.7,3.35-23.17s12.44-8.63,19.5-9.5a5.91,5.91,0,0,1,3.49.36,2.35,2.35,0,0,1,1.18,3,15,15,0,0,1,4.61-1.72,5.07,5.07,0,0,1,4.52,1.43,3.1,3.1,0,0,1-.28,4.38,5.33,5.33,0,0,1,6.06,7.68,16.84,16.84,0,0,1-4.33,4.81c-1.57,1.2-1.94,2.56-1.87,4.54" style="fill: rgb(38, 50, 56); transform-origin: 247.195px 275.607px;" id="elp2uquzpkuva" class="animable"></path><path d="M228.9,280.48l-5.34,38.85a11.67,11.67,0,0,0,10.54,13.22h0a11.67,11.67,0,0,0,12.57-10.05c.4-2.93.74-5.37.8-5.67,0,0,10,.44,12.08-9.26,1-4.68,2.27-14.49,3.31-23.38A18.47,18.47,0,0,0,248.14,264l-.94-.19C237,262.34,230.05,270.22,228.9,280.48Z" style="fill: rgb(255, 190, 157); transform-origin: 243.214px 298.113px;" id="elz2c00so85sk" class="animable"></path><path d="M247.52,316.7a23.08,23.08,0,0,1-12-6.13s1.6,7.59,11.47,8.65Z" style="fill: rgb(235, 153, 110); transform-origin: 241.52px 314.895px;" id="elulmy0ns301b" class="animable"></path><path d="M258.73,290.13a1.42,1.42,0,0,1-1.62,1.13,1.35,1.35,0,0,1-1.18-1.53,1.42,1.42,0,0,1,1.62-1.14A1.36,1.36,0,0,1,258.73,290.13Z" style="fill: rgb(38, 50, 56); transform-origin: 257.33px 289.925px;" id="ely7kjzjtyykd" class="animable"></path><path d="M259.82,288.54c-.21.15-1.11-.84-2.6-1.14s-2.74.24-2.86,0,.18-.39.72-.64a3.91,3.91,0,0,1,2.34-.24,3.71,3.71,0,0,1,2,1.13C259.83,288.12,259.92,288.47,259.82,288.54Z" style="fill: rgb(38, 50, 56); transform-origin: 257.096px 287.497px;" id="el2pj6et48rf8" class="animable"></path><path d="M244,287.71a1.41,1.41,0,0,1-1.61,1.13,1.35,1.35,0,0,1-1.18-1.53,1.41,1.41,0,0,1,1.61-1.14A1.35,1.35,0,0,1,244,287.71Z" style="fill: rgb(38, 50, 56); transform-origin: 242.606px 287.505px;" id="elz8g3qv4fggc" class="animable"></path><path d="M245.09,285.89c-.21.14-1.11-.85-2.6-1.14s-2.74.23-2.86,0,.17-.39.72-.64a3.91,3.91,0,0,1,2.34-.24,3.71,3.71,0,0,1,2,1.13C245.1,285.46,245.19,285.82,245.09,285.89Z" style="fill: rgb(38, 50, 56); transform-origin: 242.365px 284.846px;" id="elpq6xbdn9yrs" class="animable"></path><path d="M248.29,298a9.91,9.91,0,0,1,2.52,0c.38,0,.76,0,.88-.22a2.07,2.07,0,0,0,0-1.18c-.18-1-.36-2-.55-3.13-.74-4.44-1.19-8.07-1-8.1s.92,3.56,1.66,8c.17,1.1.34,2.14.5,3.14a2.33,2.33,0,0,1-.1,1.53,1,1,0,0,1-.74.44,3.39,3.39,0,0,1-.67,0A9.6,9.6,0,0,1,248.29,298Z" style="fill: rgb(38, 50, 56); transform-origin: 250.337px 291.933px;" id="el9dhibp6j0ia" class="animable"></path><path d="M243.69,298.19c.25,0-.07,1.66,1.09,3.09s2.91,1.59,2.88,1.82-.45.24-1.18.11a4.15,4.15,0,0,1-2.43-1.43,3.58,3.58,0,0,1-.8-2.56C243.32,298.53,243.58,298.16,243.69,298.19Z" style="fill: rgb(38, 50, 56); transform-origin: 245.449px 300.741px;" id="eliueij3l1ha" class="animable"></path><path d="M246.64,280.11c-.23.38-1.68-.11-3.47-.25s-3.31.05-3.47-.36c-.07-.19.26-.52.91-.8a5.79,5.79,0,0,1,2.69-.38,5.64,5.64,0,0,1,2.59.84C246.48,279.55,246.74,279.93,246.64,280.11Z" style="fill: rgb(38, 50, 56); transform-origin: 243.176px 279.272px;" id="elop9hqua2lym" class="animable"></path><path d="M260.13,284.11c-.33.29-1.29-.27-2.52-.54s-2.33-.22-2.5-.63c-.07-.19.16-.5.68-.73a3.76,3.76,0,0,1,4,.94C260.21,283.59,260.28,284,260.13,284.11Z" style="fill: rgb(38, 50, 56); transform-origin: 257.65px 283.088px;" id="elsui7lbalik" class="animable"></path><path d="M228.26,287.83c-.15-.1-6.28-3.3-7.4,3.38s5.83,6.42,5.87,6.23S228.26,287.83,228.26,287.83Z" style="fill: rgb(255, 190, 157); transform-origin: 224.499px 292.243px;" id="el8sodrnfnwsi" class="animable"></path><path d="M225.11,294.57s-.13.06-.34.12a1.15,1.15,0,0,1-.87-.13,2.9,2.9,0,0,1-.9-2.8,4,4,0,0,1,.6-1.62,1.36,1.36,0,0,1,1-.74.59.59,0,0,1,.63.43c.06.2,0,.33,0,.35s.16-.09.15-.38a.75.75,0,0,0-.19-.46.92.92,0,0,0-.62-.28,1.67,1.67,0,0,0-1.39.84,4,4,0,0,0-.71,1.79,3.06,3.06,0,0,0,1.22,3.17,1.24,1.24,0,0,0,1.09,0C225.07,294.73,225.13,294.59,225.11,294.57Z" style="fill: rgb(235, 153, 110); transform-origin: 223.888px 292.023px;" id="el8lkra0mrecl" class="animable"></path><path d="M269.23,272.29c-.67,8.8-11.94,10.62-15.82,5-1.79-2.6-3.21-5.72-6-7.22a8.05,8.05,0,0,0-6.19-.38l-.07,0c-3,1-5.15,3.88-6.09,6.89-1.31,4.18-1.26,8.07-3,11.82a2.77,2.77,0,0,1-1.08,1.38c-.91.45-2-.26-2.53-1.12a8.34,8.34,0,0,1-.94-4.69,27.77,27.77,0,0,1,2.22-10.76,18.83,18.83,0,0,1,7-8.36,17.92,17.92,0,0,1,13.29-2.2,22.06,22.06,0,0,1,11.65,7,12.91,12.91,0,0,1,3.14,5.51" style="fill: rgb(38, 50, 56); transform-origin: 248.352px 276.066px;" id="elatnh871qpe9" class="animable"></path><path d="M263,266.34a1.93,1.93,0,0,1,.92.19,4.66,4.66,0,0,1,2,1.6,5.8,5.8,0,0,1,1.09,3.64,6.5,6.5,0,0,1-2,4.19,8.54,8.54,0,0,1-4.09,2.22,11.92,11.92,0,0,1-3.78.2,14.12,14.12,0,0,1-2.49-.5,2.84,2.84,0,0,1-.87-.33c0-.1,1.29.31,3.39.46a11.82,11.82,0,0,0,3.63-.3,8.32,8.32,0,0,0,3.84-2.12,6.13,6.13,0,0,0,1.9-3.85,5.59,5.59,0,0,0-.91-3.4,4.79,4.79,0,0,0-1.79-1.62C263.27,266.45,263,266.39,263,266.34Z" style="fill: rgb(69, 90, 100); transform-origin: 260.398px 272.393px;" id="elf4t6l33k2ol" class="animable"></path><path d="M259,262.53s.26,0,.62.22a2.16,2.16,0,0,1,.8,1.6,3.89,3.89,0,0,1-.94,2.47,11,11,0,0,1-2.26,2.25,11.78,11.78,0,0,1-5.28,2.23,5.55,5.55,0,0,1-2.38,0c0-.09.91-.06,2.31-.36a12.84,12.84,0,0,0,5-2.29,12,12,0,0,0,2.19-2.12,3.75,3.75,0,0,0,.95-2.17,2.06,2.06,0,0,0-.56-1.46C259.21,262.63,259,262.57,259,262.53Z" style="fill: rgb(69, 90, 100); transform-origin: 254.99px 266.98px;" id="el5t20le0r3il" class="animable"></path><path d="M304.11,385a15.35,15.35,0,0,1-22.87,0l-17.68-19.8-.21,28.21,6.24,18.09-62,10.75L205,373.32l-4.46-37.56a10.2,10.2,0,0,1,6.39-10.7L224,318.35l24,4.4,9.66,3.68a26.36,26.36,0,0,1,10.53,7.32l27.11,31" style="fill: rgb(38, 50, 56); transform-origin: 252.289px 370.3px;" id="eluhns79vjsaa" class="animable"></path><path d="M263.92,392.19c.15,0,.18-9.78.08-21.82s-.29-21.82-.44-21.82-.18,9.77-.08,21.82S263.78,392.19,263.92,392.19Z" style="fill: rgb(38, 50, 56); transform-origin: 263.74px 370.37px;" id="eloq59842rj5b" class="animable"></path><path d="M261.65,399.36l-37.46-15.08a8.54,8.54,0,0,1-5.33-7.29l-2.74-35.91s.32-15.27-9.22-16l-5.43,2.14c-7,3.73-8.75,13.94-7.79,21.82,1.35,11.2,1.92,27.06,3.44,36.78,1.24,7.95,5.8,14.95,13.58,17l46.13,10Z" style="fill: rgb(38, 50, 56); transform-origin: 227.544px 368.95px;" id="elvn5fuhd0eh" class="animable"></path><path d="M216.65,346.56a4.52,4.52,0,0,1,.12.82q.09.87.24,2.37l.79,8.7c.32,3.7.7,8.07,1.11,12.92.11,1.22.21,2.47.32,3.74a27.79,27.79,0,0,0,.48,3.84,6.36,6.36,0,0,0,1.86,3.37,12.79,12.79,0,0,0,3.45,2.15c10.33,4.47,19.85,8.16,26.76,10.74l8.2,3,2.23.82a4.15,4.15,0,0,1,.77.32,6,6,0,0,1-.8-.23l-2.26-.73c-2-.65-4.79-1.62-8.26-2.87-6.95-2.51-16.49-6.14-26.84-10.63a12.83,12.83,0,0,1-3.59-2.24,6.88,6.88,0,0,1-2-3.62,28.56,28.56,0,0,1-.48-3.91c-.1-1.27-.2-2.52-.3-3.74-.37-4.85-.71-9.23-1-12.93s-.48-6.61-.63-8.72c-.06-1-.11-1.79-.15-2.37A6.47,6.47,0,0,1,216.65,346.56Z" style="fill: rgb(38, 50, 56); transform-origin: 239.813px 372.955px;" id="elqrnsec64xbq" class="animable"></path><path d="M195.19,366.08a1.83,1.83,0,0,1,.08.48c0,.38.07.83.12,1.39.11,1.28.26,3,.45,5.09s.46,4.71.84,7.54a71.24,71.24,0,0,0,1.69,9.09,13.7,13.7,0,0,0,1.82,4.34,25.53,25.53,0,0,0,2.8,3.44,23.89,23.89,0,0,0,6,4.49,22.25,22.25,0,0,0,6.57,2.16,1.74,1.74,0,0,1-.48,0,12,12,0,0,1-1.39-.18,18.2,18.2,0,0,1-4.86-1.65,23.31,23.31,0,0,1-6.17-4.49,24.4,24.4,0,0,1-2.87-3.48,14,14,0,0,1-1.91-4.48,68.21,68.21,0,0,1-1.66-9.17c-.35-2.84-.58-5.41-.74-7.57s-.24-3.9-.28-5.11l0-1.39A2.66,2.66,0,0,1,195.19,366.08Z" style="fill: rgb(38, 50, 56); transform-origin: 205.371px 385.098px;" id="eli0fglohklj" class="animable"></path><path d="M211.21,391.21a5.55,5.55,0,0,1,.68-2,12.94,12.94,0,0,1,7.6-6.49,5.6,5.6,0,0,1,2.08-.36c0,.08-.77.24-2,.7a14.78,14.78,0,0,0-4.25,2.52,15,15,0,0,0-3.16,3.8C211.57,390.48,211.29,391.24,211.21,391.21Z" style="fill: rgb(38, 50, 56); transform-origin: 216.39px 386.785px;" id="el218owa6xu8s" class="animable"></path><g id="el6wvrjq1hh1i"><g style="opacity: 0.3; transform-origin: 234.395px 376.19px;" class="animable"><path d="M250.89,395.07c-4-2.26-7.93-4-12.12-5.9s-8.28-4.34-11-8c-5.16-7-4.58-17-9.87-23.9q.52,6.94,1,13.87c.32,4.24-.33,8.43,2.4,11.31,2.3,2.42,6.78,4.28,9.95,5.33,6.38,2.11,13.25,5.23,19.63,7.33" id="elur0v5bymvrq" class="animable" style="transform-origin: 234.395px 376.19px;"></path></g></g><path d="M222.49,320.05l1.83-6.87,23.28,5.47a2.34,2.34,0,0,1,1.7,2.94l-1.78,6.06-8.4,10.78-9.53-1.7-7.1-5.45Z" style="fill: rgb(38, 50, 56); transform-origin: 235.943px 325.805px;" id="elfv6xne790r" class="animable"></path><path d="M248,323.17a2.75,2.75,0,0,1-.82.19,20.89,20.89,0,0,1-2.28.22,27.28,27.28,0,0,1-14.57-3.5,18.26,18.26,0,0,1-1.93-1.23c-.44-.32-.67-.51-.65-.54s1.05.58,2.76,1.45a31.49,31.49,0,0,0,14.38,3.45C246.84,323.21,248,323.08,248,323.17Z" style="fill: rgb(38, 50, 56); transform-origin: 237.874px 320.957px;" id="el4ujjfurg12e" class="animable"></path><path d="M230.7,320.07s-.32-.19-.56-.71a3.51,3.51,0,0,1-.18-2.17,3.47,3.47,0,0,1,1.12-1.87c.45-.36.8-.44.82-.39s-.23.27-.56.65a4.18,4.18,0,0,0-.87,1.73,4.12,4.12,0,0,0,0,1.93C230.61,319.73,230.77,320,230.7,320.07Z" style="fill: rgb(245, 245, 245); transform-origin: 230.883px 317.493px;" id="eln26g31zchmk" class="animable"></path><path d="M240.71,323.47a9.09,9.09,0,0,0-.72-6.58s.35.22.7.78a5.82,5.82,0,0,1,.8,2.39,5.94,5.94,0,0,1-.26,2.51C241,323.18,240.77,323.5,240.71,323.47Z" style="fill: rgb(245, 245, 245); transform-origin: 240.758px 320.181px;" id="el2z145zlqsnx" class="animable"></path><path d="M241.52,391.14a3.08,3.08,0,0,1,0-.7c0-.46.14-1.13.17-2a54.47,54.47,0,0,0,0-7.37,100.45,100.45,0,0,0-1.38-10.84c-.7-4.06-1.62-8.51-2.36-13.22a142.89,142.89,0,0,1-1.67-24.35c.06-3.12.2-5.65.34-7.39.06-.87.14-1.54.19-2a3.6,3.6,0,0,1,.1-.7,3.22,3.22,0,0,1,0,.71c0,.51,0,1.17-.09,2-.07,1.75-.16,4.27-.17,7.39a154.17,154.17,0,0,0,1.82,24.26c.74,4.69,1.64,9.14,2.31,13.22a96,96,0,0,1,1.28,10.9,47.56,47.56,0,0,1-.15,7.41c-.06.87-.2,1.54-.26,2A3.57,3.57,0,0,1,241.52,391.14Z" style="fill: rgb(245, 245, 245); transform-origin: 239.199px 356.855px;" id="elp93dup2ms4g" class="animable"></path><path d="M253,324.52a.62.62,0,0,1,.07.18q.06.18.15.54a13,13,0,0,1,.27,2.13c.12,1.87-.14,4.55-.29,7.86s-.33,7.26-.2,11.64A67,67,0,0,0,254.76,361c1.16,4.91,2.51,9.58,3,14a68.33,68.33,0,0,1,.39,11.68c-.17,3.32-.47,6-.71,7.83-.12.92-.23,1.64-.31,2.12a6.48,6.48,0,0,1-.14.73,3.27,3.27,0,0,1,0-.75c0-.53.12-1.24.21-2.12.18-1.85.42-4.52.54-7.83a71.68,71.68,0,0,0-.5-11.6c-.51-4.34-1.87-9-3-13.91a66,66,0,0,1-1.76-14.19c-.1-4.4.1-8.36.32-11.67s.5-6,.45-7.83a15.06,15.06,0,0,0-.18-2.12A7.22,7.22,0,0,1,253,324.52Z" style="fill: rgb(245, 245, 245); transform-origin: 255.348px 360.94px;" id="elwtaf6q3n5zm" class="animable"></path><path d="M274.31,364.53a8.5,8.5,0,0,1-1.82-1.45,41.14,41.14,0,0,1-3.88-4.05,42.86,42.86,0,0,1-3.34-4.51,8.46,8.46,0,0,1-1.12-2c.13-.08,2,2.89,4.85,6.21S274.41,364.42,274.31,364.53Z" style="fill: rgb(245, 245, 245); transform-origin: 269.231px 358.524px;" id="elzhc31q6swcp" class="animable"></path><path d="M287.12,361.49A8.62,8.62,0,0,1,286,360.4c-.68-.72-1.64-1.78-2.8-3.11-2.34-2.66-5.47-6.41-8.77-10.68s-6.13-8.27-8.11-11.2c-1-1.47-1.77-2.66-2.29-3.5a8.94,8.94,0,0,1-.78-1.33,8.25,8.25,0,0,1,1,1.21l2.43,3.41c2,2.87,4.92,6.82,8.21,11.09s6.38,8,8.64,10.76l2.67,3.22A8.55,8.55,0,0,1,287.12,361.49Z" style="fill: rgb(245, 245, 245); transform-origin: 275.185px 346.035px;" id="elqeu705xg9s" class="animable"></path><path d="M223.75,384.49a3.57,3.57,0,0,1-.39-.55,12.08,12.08,0,0,1-.84-1.77,17.46,17.46,0,0,1-.88-7.08c.14-3,1-6.55,1.51-10.48a71.33,71.33,0,0,0,.14-12.89c-.3-4.58-.75-8.94-.92-12.93a63.48,63.48,0,0,1,.31-10.6,36,36,0,0,1,1.52-7,17.47,17.47,0,0,1,.69-1.82,3.2,3.2,0,0,1,.29-.62s-.32.88-.78,2.5a38.5,38.5,0,0,0-1.35,7,67.32,67.32,0,0,0-.2,10.54c.19,4,.66,8.32,1,12.92a68.67,68.67,0,0,1-.19,13c-.52,4-1.43,7.45-1.61,10.44a18,18,0,0,0,.7,7A20.6,20.6,0,0,0,223.75,384.49Z" style="fill: rgb(245, 245, 245); transform-origin: 223.381px 351.62px;" id="elinjl615ngn" class="animable"></path><path d="M212.76,387.91a8.36,8.36,0,0,1-2.46-1.42,14.12,14.12,0,0,1-4.27-6.4,19.58,19.58,0,0,1-1-5.27,34.24,34.24,0,0,1,.31-6.14c.57-4.29,1.72-8.89,2.09-13.83a74.05,74.05,0,0,0-.12-13.94c-.21-2.14-.43-4.19-.43-6.12a17.85,17.85,0,0,1,.69-5.32,10.76,10.76,0,0,1,4.55-6.14,7.49,7.49,0,0,1,2-.8,5.68,5.68,0,0,1,.73-.1,9.39,9.39,0,0,0-2.58,1.07,10.77,10.77,0,0,0-4.31,6.08,17.75,17.75,0,0,0-.61,5.21c0,1.9.25,3.93.48,6.07a73.28,73.28,0,0,1,.16,14c-.38,5-1.54,9.61-2.13,13.85a32.54,32.54,0,0,0-.35,6.05,18.9,18.9,0,0,0,.91,5.17,14.26,14.26,0,0,0,4.05,6.36A18,18,0,0,0,212.76,387.91Z" style="fill: rgb(245, 245, 245); transform-origin: 209.927px 355.17px;" id="eloby9inc5yyn" class="animable"></path><path d="M255.66,403a12,12,0,0,1-1.66-.67l-4.45-1.94c-3.76-1.61-9-3.76-14.88-5.87s-11.29-3.78-15.23-4.92l-4.66-1.33a10,10,0,0,1-1.7-.54,13.24,13.24,0,0,1,1.75.34c1.12.25,2.73.65,4.71,1.18,4,1.05,9.41,2.67,15.31,4.78s11.12,4.32,14.85,6c1.87.85,3.37,1.57,4.39,2.09A10,10,0,0,1,255.66,403Z" style="fill: rgb(245, 245, 245); transform-origin: 234.37px 395.365px;" id="elm2er5icv74" class="animable"></path><path d="M207.31,401s-.07,0-.17-.08a3.52,3.52,0,0,1-.47-.28,11.83,11.83,0,0,1-1.62-1.33,19.7,19.7,0,0,1-4.33-6.34,8.34,8.34,0,0,1-.56-2.52c-.1-.88-.2-1.79-.31-2.74-.2-1.89-.43-3.91-.66-6A129.65,129.65,0,0,0,197,367.92a75.31,75.31,0,0,1-1.5-13.88c-.11-4.29.07-8.15.27-11.38s.43-5.85.6-7.65c.09-.86.16-1.55.22-2.07a3.14,3.14,0,0,1,.11-.72,5.75,5.75,0,0,1,0,.73c0,.52-.07,1.21-.11,2.08-.11,1.8-.29,4.42-.44,7.65s-.29,7.08-.16,11.35a77.84,77.84,0,0,0,1.53,13.78,125.59,125.59,0,0,1,2.13,13.78c.21,2.13.42,4.15.61,6.05.1.94.19,1.86.28,2.74a7.9,7.9,0,0,0,.51,2.43,20.23,20.23,0,0,0,4.13,6.33,14.27,14.27,0,0,0,1.53,1.39A4.76,4.76,0,0,1,207.31,401Z" style="fill: rgb(245, 245, 245); transform-origin: 201.388px 366.61px;" id="el05js5ej9sdi8" class="animable"></path><path d="M316,447.85s31.34,8.68,32.6,9.12c1.88.66,1.57,7.58-1.37,7.47-1.39-.05-24.07.85-26.94.67s-11.51-3.59-11.51-3.59Z" style="fill: rgb(38, 50, 56); transform-origin: 329.279px 456.492px;" id="elubfofus60p" class="animable"></path><path d="M329,459.81a13.75,13.75,0,0,1,3.6-6.25,7,7,0,0,0-3.6,6.25Z" style="fill: rgb(38, 50, 56); transform-origin: 330.799px 456.685px;" id="elm6eap5befzh" class="animable"></path><path d="M325.76,458.33c.15,0,.47-1.45,1.3-3.09s1.82-2.78,1.71-2.89a7.79,7.79,0,0,0-3,6Z" style="fill: rgb(38, 50, 56); transform-origin: 327.269px 455.35px;" id="el7qzridlo4do" class="animable"></path><path d="M322.69,457.51a22,22,0,0,1,.73-3.31,21.1,21.1,0,0,1,1.71-2.93,5.91,5.91,0,0,0-2.44,6.24Z" style="fill: rgb(38, 50, 56); transform-origin: 323.832px 454.39px;" id="el81v70s40pww" class="animable"></path><path d="M323.25,453.46a5.65,5.65,0,0,0,.33-2.33,11,11,0,0,0-.31-2.56,11.08,11.08,0,0,0-.47-1.45,1.76,1.76,0,0,0-.5-.77.85.85,0,0,0-1.08,0,1.39,1.39,0,0,0-.42.89,7.94,7.94,0,0,0,0,.83,6.81,6.81,0,0,0,.2,1.53,9.29,9.29,0,0,0,1,2.4,6,6,0,0,0,1.41,1.88c.07-.05-.45-.78-1.08-2.05a10.19,10.19,0,0,1-.82-2.33,6.69,6.69,0,0,1-.15-1.44c0-.48,0-1.08.29-1.31a.3.3,0,0,1,.41,0,1.29,1.29,0,0,1,.34.54,10.44,10.44,0,0,1,.48,1.39,12.29,12.29,0,0,1,.41,2.44C323.3,452.56,323.16,453.45,323.25,453.46Z" style="fill: rgb(38, 50, 56); transform-origin: 322.191px 450.018px;" id="el6f3qn0fsf5v" class="animable"></path><path d="M323.21,453.14a4.6,4.6,0,0,0-2-.32,9,9,0,0,0-2.23.27,4.89,4.89,0,0,0-1.28.47A1.32,1.32,0,0,0,317,455a1.58,1.58,0,0,0,1.13,1.12,2.92,2.92,0,0,0,1.41,0,5.48,5.48,0,0,0,2-1,5.33,5.33,0,0,0,1.45-1.44,15.57,15.57,0,0,0-1.67,1.13,5.29,5.29,0,0,1-1.92.83,2.4,2.4,0,0,1-1.16,0,1,1,0,0,1-.76-.75A.8.8,0,0,1,318,454a4.49,4.49,0,0,1,1.14-.44,9.58,9.58,0,0,1,2.11-.37C322.43,453.1,323.2,453.23,323.21,453.14Z" style="fill: rgb(38, 50, 56); transform-origin: 320.092px 454.509px;" id="elum5qtglmmxd" class="animable"></path><path d="M333.84,460.15a15.94,15.94,0,0,1,.62-2.83,16.41,16.41,0,0,1,1.53-2.45,4.49,4.49,0,0,0-2.15,5.28Z" style="fill: rgb(38, 50, 56); transform-origin: 334.814px 457.51px;" id="el3ll9etqi57x" class="animable"></path><path d="M312,461.59a5.9,5.9,0,0,0,1.21.57,27.7,27.7,0,0,0,3.49,1.09,50.06,50.06,0,0,0,12,1.13c4.69-.05,8.92-.27,12-.39l3.64-.19a7.81,7.81,0,0,0,1.33-.14,6.29,6.29,0,0,0-1.34-.07l-3.64,0-12,.23a55.67,55.67,0,0,1-11.88-1C313.76,462.27,312,461.5,312,461.59Z" style="fill: rgb(38, 50, 56); transform-origin: 328.835px 462.99px;" id="elhf714w699cs" class="animable"></path><path d="M311.05,462.31c0,.07.9-.43,2.34-1.07a10.9,10.9,0,0,1,5.93-1,9.37,9.37,0,0,1,5.13,3.05,16.38,16.38,0,0,0,1.81,1.84,10,10,0,0,0-1.54-2.09,12.43,12.43,0,0,0-2.08-1.95,7.46,7.46,0,0,0-3.23-1.37,10.33,10.33,0,0,0-6.17,1.17A7.93,7.93,0,0,0,311.05,462.31Z" style="fill: rgb(38, 50, 56); transform-origin: 318.655px 462.387px;" id="elztom38b4s7" class="animable"></path><path d="M282.7,439.2S253.05,458.62,252,459.42c-1.59,1.21.24,6.95,3,6,1.3-.47,26.19-7.39,28.87-8.43s9.87-6.92,9.87-6.92Z" style="fill: rgb(38, 50, 56); transform-origin: 272.575px 452.363px;" id="elpr5oox23ci9" class="animable"></path><path d="M273.9,454.56a7,7,0,0,0-5.33-4.86,28.6,28.6,0,0,1,3,2.07A30.82,30.82,0,0,1,273.9,454.56Z" style="fill: rgb(38, 50, 56); transform-origin: 271.235px 452.13px;" id="el6ao4lxo6cpf" class="animable"></path><path d="M276.56,452.16a5.89,5.89,0,0,0-1.81-2.92,6,6,0,0,0-2.88-1.87c-.07.14,1.23.92,2.51,2.24S276.42,452.23,276.56,452.16Z" style="fill: rgb(38, 50, 56); transform-origin: 274.214px 449.766px;" id="ell3bzy7amjs9" class="animable"></path><path d="M279.23,450.44a5.89,5.89,0,0,0-4.22-5.2,21.41,21.41,0,0,1,2.52,2.27A20.55,20.55,0,0,1,279.23,450.44Z" style="fill: rgb(38, 50, 56); transform-origin: 277.12px 447.84px;" id="el391302xrdov" class="animable"></path><path d="M277.47,446.75c.08,0-.33-.84-.67-2.21a12.64,12.64,0,0,1-.35-2.46,12,12,0,0,1,0-1.46,1.35,1.35,0,0,1,.17-.63.29.29,0,0,1,.4-.09c.34.13.52.71.68,1.16a7.37,7.37,0,0,1,.29,1.41,10.33,10.33,0,0,1-.08,2.47c-.21,1.41-.49,2.26-.4,2.29a6.36,6.36,0,0,0,.77-2.22,9.35,9.35,0,0,0,.19-2.58,7.76,7.76,0,0,0-.28-1.52c-.08-.26-.18-.51-.29-.78a1.43,1.43,0,0,0-.67-.71.82.82,0,0,0-1,.27,1.78,1.78,0,0,0-.25.89,11.16,11.16,0,0,0,.47,4.05A5.45,5.45,0,0,0,277.47,446.75Z" style="fill: rgb(38, 50, 56); transform-origin: 277.222px 443.289px;" id="eldxwo88prrrj" class="animable"></path><path d="M277.41,446.44c0,.07.73-.28,1.93-.57a11.19,11.19,0,0,1,2.12-.29,4.48,4.48,0,0,1,1.22.08.81.81,0,0,1,.71.69,1.06,1.06,0,0,1-.5.94,2.52,2.52,0,0,1-1.1.37,5.52,5.52,0,0,1-2.09-.21,13.91,13.91,0,0,0-1.93-.57,5.69,5.69,0,0,0,1.82.93,5.62,5.62,0,0,0,2.25.33,3,3,0,0,0,1.34-.42,1.57,1.57,0,0,0,.73-1.41,1.32,1.32,0,0,0-1.11-1.15,4.89,4.89,0,0,0-1.36-.06,9.09,9.09,0,0,0-2.2.41A4.4,4.4,0,0,0,277.41,446.44Z" style="fill: rgb(38, 50, 56); transform-origin: 280.661px 446.614px;" id="elqhik4xx2aep" class="animable"></path><path d="M258.76,464.3s.5-.3.73-1.15a4.36,4.36,0,0,0-.56-3.22,10.87,10.87,0,0,0-1-1.48,5.29,5.29,0,0,0-1-1.08,1.74,1.74,0,0,0-.94-.4c-.25,0-.38,0-.37.08a2.68,2.68,0,0,1,1.07.6,7,7,0,0,1,.86,1.08,15.1,15.1,0,0,1,.92,1.45,4.59,4.59,0,0,1,.66,2.89A12.77,12.77,0,0,1,258.76,464.3Z" style="fill: rgb(38, 50, 56); transform-origin: 257.604px 460.635px;" id="eleehuuf2b9mn" class="animable"></path><path d="M269.41,456.34a3.6,3.6,0,0,0-1-2.84,3.7,3.7,0,0,0-2.61-1.54c-.06.15,1.19.64,2.2,1.88A16,16,0,0,1,269.41,456.34Z" style="fill: rgb(38, 50, 56); transform-origin: 267.612px 454.15px;" id="elnubmq4fp73k" class="animable"></path><path d="M290.68,451.08a10.68,10.68,0,0,0-1.3.89,35.09,35.09,0,0,1-3.66,2.24,47.3,47.3,0,0,1-5.8,2.59c-2.25.84-4.77,1.63-7.43,2.4-5.34,1.53-10.17,2.94-13.65,4l-4.12,1.26a9.92,9.92,0,0,0-1.49.53,7.94,7.94,0,0,0,1.54-.33l4.17-1.11c3.51-1,8.36-2.3,13.7-3.84,2.66-.77,5.19-1.58,7.45-2.45a42.74,42.74,0,0,0,5.81-2.71,29.84,29.84,0,0,0,3.6-2.4A7.43,7.43,0,0,0,290.68,451.08Z" style="fill: rgb(38, 50, 56); transform-origin: 271.955px 458.035px;" id="elbbwydwf46cj" class="animable"></path><path d="M291.78,451.48a8,8,0,0,0-2.51-.67,10.38,10.38,0,0,0-6.23.76,7.37,7.37,0,0,0-2.67,2.29,12.76,12.76,0,0,0-1.39,2.48,9.64,9.64,0,0,0-.82,2.47,20.09,20.09,0,0,0,1.16-2.31,9.34,9.34,0,0,1,3.95-4.46,10.94,10.94,0,0,1,6-.86C290.8,451.34,291.77,451.56,291.78,451.48Z" style="fill: rgb(38, 50, 56); transform-origin: 284.97px 454.721px;" id="elk30vrbpg9ph" class="animable"></path><path d="M344.33,391.85s8.9,3.17,8.94,13.15c.07,19.11-38.61,40.17-38.61,40.17l-51.48-34.11-3.22-1.3S329.44,383.66,344.33,391.85Z" style="fill: rgb(38, 50, 56); transform-origin: 306.615px 417.715px;" id="elw1lqwjktnir" class="animable"></path><path d="M289.26,428.29a9.8,9.8,0,0,0,1.34-.91c.84-.61,2-1.52,3.52-2.66,2.95-2.27,7-5.5,11.27-9.21s8.11-7.18,10.81-9.75c1.35-1.28,2.43-2.33,3.16-3.07a9.85,9.85,0,0,0,1.1-1.19,8,8,0,0,0-1.24,1L316,405.49c-2.76,2.5-6.6,5.93-10.9,9.63s-8.28,7-11.16,9.31l-3.42,2.79A9.43,9.43,0,0,0,289.26,428.29Z" style="fill: rgb(69, 90, 100); transform-origin: 304.86px 414.895px;" id="elzjrweay5ikp" class="animable"></path><path d="M329.8,399a12.78,12.78,0,0,0-9.37,2.76c.09.14,2-1.05,4.56-1.81S329.8,399.15,329.8,399Z" style="fill: rgb(69, 90, 100); transform-origin: 325.115px 400.35px;" id="ell6rvocyz1em" class="animable"></path><path d="M325.37,396a6.1,6.1,0,0,0-3.05,2.29,6.17,6.17,0,0,0-1.61,3.47c.15.05.72-1.55,2-3.14S325.45,396.11,325.37,396Z" style="fill: rgb(69, 90, 100); transform-origin: 323.042px 398.881px;" id="eld0irozahjw" class="animable"></path><path d="M347.16,456.48c0-.06-.61-.18-1.32.4a4.76,4.76,0,0,0-1.49,3,5.83,5.83,0,0,0,.47,3.3c.36.78.76,1.14.81,1.11s-.21-.49-.47-1.25a6.71,6.71,0,0,1-.29-3.09,5.17,5.17,0,0,1,1.21-2.78A3.83,3.83,0,0,1,347.16,456.48Z" style="fill: rgb(38, 50, 56); transform-origin: 345.723px 460.359px;" id="elmij6v1f4w5" class="animable"></path><polygon points="332.49 360.63 314.16 407.1 235.22 408.39 233.76 404.12 261.43 403.12 274.72 361.89 332.49 360.63" style="fill: rgb(69, 90, 100); transform-origin: 283.125px 384.51px;" id="elfz46knplkm" class="animable"></polygon><path d="M295.63,380.75a3.5,3.5,0,0,1,3.79.4,3.07,3.07,0,0,1,.75,3.37,3.35,3.35,0,0,1-2.85,2,3,3,0,0,1-3-2,3.37,3.37,0,0,1,1.33-3.77" style="fill: rgb(235, 235, 235); transform-origin: 297.28px 383.447px;" id="el2hrbcpmi13u" class="animable"></path><path d="M319.53,447.49s-72.73-47.7-75.7-48.69-10.18-5.71-17.37-3.73-13.65,8.44-16.88,17.87c-1.84,5.39-2.71,14.58-3.12,21.47a31.86,31.86,0,0,0,7.45,22.72,20.44,20.44,0,0,0,9.07,6.44c.76.23,1.54.43,2.35.61a34.21,34.21,0,0,0,35.61-14.95l1.69-2.58s47.58,17.47,48.32,17.23Z" style="fill: rgb(38, 50, 56); transform-origin: 262.958px 429.734px;" id="elv3tz8lsj6k" class="animable"></path><path d="M229.56,434.36s.13.07.4.18l1.19.47,4.61,1.77,17.13,6.46c7.28,2.72,16,5.94,25.78,9.5s20.62,7.46,32.2,11.38l.21.07.11-.19c1.81-3.47,3.73-7.14,5.68-10.85l2.89-5.54.11-.21-.2-.13L264.2,412.06l-16.67-10.52L243,398.72l-1.18-.72-.41-.23a4.53,4.53,0,0,0,.38.27l1.15.77,4.48,2.9L264,412.36l55.38,35.35-.09-.34-2.9,5.53c-1.94,3.72-3.86,7.38-5.68,10.86l.32-.13c-11.57-3.91-22.42-7.79-32.21-11.32L253,442.91l-17.19-6.3-4.64-1.69-1.21-.43Z" style="fill: rgb(69, 90, 100); transform-origin: 274.715px 430.98px;" id="elhshfr49tts" class="animable"></path></g><defs>     <filter id="active" height="200%">         <feMorphology in="SourceAlpha" result="DILATED" operator="dilate" radius="2"></feMorphology>                <feFlood flood-color="#32DFEC" flood-opacity="1" result="PINK"></feFlood>        <feComposite in="PINK" in2="DILATED" operator="in" result="OUTLINE"></feComposite>        <feMerge>            <feMergeNode in="OUTLINE"></feMergeNode>            <feMergeNode in="SourceGraphic"></feMergeNode>        </feMerge>    </filter>    <filter id="hover" height="200%">        <feMorphology in="SourceAlpha" result="DILATED" operator="dilate" radius="2"></feMorphology>                <feFlood flood-color="#ff0000" flood-opacity="0.5" result="PINK"></feFlood>        <feComposite in="PINK" in2="DILATED" operator="in" result="OUTLINE"></feComposite>        <feMerge>            <feMergeNode in="OUTLINE"></feMergeNode>            <feMergeNode in="SourceGraphic"></feMergeNode>        </feMerge>            <feColorMatrix type="matrix" values="0   0   0   0   0                0   1   0   0   0                0   0   0   0   0                0   0   0   1   0 "></feColorMatrix>    </filter></defs></svg>